<svg height="512pt" viewBox="0 -49 512 511" width="512pt" xmlns="http://www.w3.org/2000/svg"><path d="m10 10.5h492v280h-492zm0 0" fill="#91d9b9"/><path d="m10 290.5h492v112h-492zm0 0" fill="#78d0a9"/><path d="m58 215v-129c15.1875 0 27.5-12.3125 27.5-27.5h341c0 15.1875 12.3125 27.5 27.5 27.5v129c-15.1875 0-27.5 12.3125-27.5 27.5h-341c0-15.1875-12.3125-27.5-27.5-27.5zm0 0" fill="#ddf3e9"/><path d="m224 10.5h64v280h-64zm0 0" fill="#ffd89e"/><path d="m224 290.5h64v112h-64zm0 0" fill="#ffcb7c"/><path d="m502 .5h-342.832031c-5.523438 0-10 4.476562-10 10s4.476562 10 10 10h54.832031v28h-128.5c-5.523438 0-10 4.476562-10 10 0 9.648438-7.851562 17.5-17.5 17.5-5.523438 0-10 4.476562-10 10v129c0 5.523438 4.476562 10 10 10 9.648438 0 17.5 7.851562 17.5 17.5 0 5.523438 4.476562 10 10 10h128.5v28h-194v-260h59.167969c5.523437 0 10-4.476562 10-10s-4.476563-10-10-10h-69.167969c-5.523438 0-10 4.476562-10 10v392c0 5.523438 4.476562 10 10 10h492c5.523438 0 10-4.476562 10-10v-392c0-5.523438-4.476562-10-10-10zm-204 68h119.855469c3.503906 12.652344 13.492187 22.640625 26.144531 26.144531v111.707031c-12.652344 3.507813-22.640625 13.496094-26.144531 26.148438h-119.855469zm0 232h194v36h-194zm194-20h-194v-28h128.5c5.523438 0 10-4.476562 10-10 0-9.648438 7.851562-17.5 17.5-17.5 5.523438 0 10-4.476562 10-10v-129c0-5.523438-4.476562-10-10-10-9.648438 0-17.5-7.851562-17.5-17.5 0-5.523438-4.476562-10-10-10h-128.5v-28h194zm-214-260v260h-44v-260zm-183.855469 212c-3.503906-12.652344-13.492187-22.640625-26.144531-26.144531v-111.710938c12.652344-3.503906 22.640625-13.492187 26.144531-26.144531h119.855469v164zm119.855469 68v36h-194v-36zm-194 56h194v36h-194zm214 36v-92h44v92zm64 0v-36h194v36zm0 0"/><path d="m384 141.246094h-42c-5.523438 0-10 4.480468-10 10 0 5.523437 4.476562 10 10 10h42c5.523438 0 10-4.476563 10-10 0-5.519532-4.476562-10-10-10zm0 0"/><path d="m170 141.246094h-42c-5.523438 0-10 4.480468-10 10 0 5.523437 4.476562 10 10 10h42c5.523438 0 10-4.476563 10-10 0-5.519532-4.476562-10-10-10zm0 0"/><path d="m119.171875 20.5c2.628906 0 5.207031-1.070312 7.066406-2.929688 1.863281-1.859374 2.933594-4.441406 2.933594-7.070312s-1.070313-5.210938-2.933594-7.070312c-1.859375-1.859376-4.4375-2.929688-7.066406-2.929688-2.632813 0-5.210937 1.070312-7.070313 2.929688-1.863281 1.859374-2.929687 4.441406-2.929687 7.070312s1.066406 5.210938 2.929687 7.070312c1.859376 1.859376 4.4375 2.929688 7.070313 2.929688zm0 0"/></svg>