<svg height="512pt" viewBox="0 0 512 512" width="512pt" xmlns="http://www.w3.org/2000/svg"><path d="m333.964844 10h-303.96875c-11.042969 0-19.996094 8.953125-19.996094 19.996094v400.082031c0 11.046875 8.953125 20 19.996094 20h303.96875c11.042968 0 19.996094-8.953125 19.996094-20v-400.082031c0-11.042969-8.953126-19.996094-19.996094-19.996094zm0 0" fill="#fff"/><path d="m75.992188 306.375h211.976562v39.996094h-211.976562zm0 0" fill="#d8ec84"/><path d="m279.972656 167.121094c0 54.074218-43.835937 97.914062-97.910156 97.914062s-97.910156-43.839844-97.910156-97.914062c0-54.074219 43.835937-97.910156 97.910156-97.910156s97.910156 43.835937 97.910156 97.910156zm0 0" fill="#60a4ff"/><path d="m213.109375 154.585938v7.757812c0 17.148438-13.902344 31.046875-31.046875 31.046875s-31.046875-13.898437-31.046875-31.046875v-7.757812c0-17.148438 13.902344-31.046876 31.046875-31.046876s31.046875 13.898438 31.046875 31.046876zm0 0" fill="#ffddcf"/><path d="m182.0625 193.390625c-30.304688 0-56.195312 18.824219-66.664062 45.414063 17.480468 16.265624 40.902343 26.226562 66.664062 26.226562s49.183594-9.960938 66.664062-26.226562c-10.46875-26.585938-36.359374-45.414063-66.664062-45.414063zm0 0" fill="#91def5"/><path d="m502 384.015625c0 65.160156-52.824219 117.984375-117.984375 117.984375-65.164063 0-117.988281-52.824219-117.988281-117.984375 0-65.164063 52.824218-117.988281 117.988281-117.988281 65.160156 0 117.984375 52.824218 117.984375 117.988281zm0 0" fill="#cff1fb"/><path d="m10 240.035156c2.628906 0 5.207031-1.0625 7.066406-2.929687 1.859375-1.859375 2.929688-4.429688 2.929688-7.070313 0-2.628906-1.066406-5.210937-2.929688-7.070312-1.859375-1.859375-4.4375-2.929688-7.066406-2.929688s-5.210938 1.070313-7.070312 2.929688c-1.859376 1.859375-2.929688 4.441406-2.929688 7.070312 0 2.640625 1.070312 5.210938 2.929688 7.070313 1.859374 1.867187 4.441406 2.929687 7.070312 2.929687zm0 0"/><path d="m216.976562 400.863281c5.523438 0 10-4.476562 10-9.996093 0-5.523438-4.476562-10-10-10h-69.828124c-5.523438 0-10 4.476562-10 10 0 5.519531 4.476562 9.996093 10 9.996093zm0 0"/><path d="m108.066406 245.589844c.355469.382812.734375.746094 1.152344 1.074218 19.210938 17.605469 44.792969 28.367188 72.84375 28.367188s53.632812-10.757812 72.84375-28.367188c.417969-.328124.800781-.691406 1.152344-1.074218 20.867187-19.6875 33.914062-47.582032 33.914062-78.46875 0-59.5-48.40625-107.910156-107.910156-107.910156-59.5 0-107.910156 48.410156-107.910156 107.910156 0 30.886718 13.046875 58.78125 33.914062 78.46875zm19.558594-9.484375c10.613281-20.082031 31.296875-32.714844 54.4375-32.714844s43.824219 12.632813 54.4375 32.714844c-14.984375 11.847656-33.898438 18.929687-54.4375 18.929687s-39.457031-7.082031-54.4375-18.929687zm33.390625-73.761719v-7.757812c0-11.605469 9.441406-21.046876 21.046875-21.046876s21.046875 9.441407 21.046875 21.046876v7.757812c0 11.605469-9.441406 21.046875-21.046875 21.046875s-21.046875-9.441406-21.046875-21.046875zm21.046875-83.136719c48.476562 0 87.914062 39.4375 87.914062 87.914063 0 20.492187-7.050781 39.371094-18.851562 54.335937-9.152344-14.597656-22.542969-25.730469-38.214844-32.082031 6.339844-7.226562 10.195313-16.683594 10.195313-27.03125v-7.761719c0-22.628906-18.410157-41.042969-41.042969-41.042969s-41.042969 18.414063-41.042969 41.042969v7.761719c0 10.347656 3.855469 19.804688 10.195313 27.03125-15.671875 6.351562-29.066406 17.484375-38.21875 32.082031-11.796875-14.964843-18.847656-33.84375-18.847656-54.335937 0-48.476563 39.4375-87.914063 87.914062-87.914063zm0 0"/><path d="m474.515625 293.515625c-24.175781-24.175781-56.316406-37.488281-90.5-37.488281-6.78125 0-13.480469.53125-20.054687 1.5625v-227.59375c0-16.539063-13.457032-29.996094-29.996094-29.996094h-303.96875c-16.539063 0-29.996094 13.457031-29.996094 29.996094v160.046875c0 5.523437 4.476562 10 10 10 5.519531 0 9.996094-4.476563 9.996094-10v-160.046875c0-5.511719 4.488281-10 10-10h303.96875c5.511718 0 10 4.488281 10 10v232.394531c-18.8125 6.171875-36.046875 16.71875-50.453125 31.121094-1.042969 1.046875-2.058594 2.113281-3.0625 3.1875-.796875-.203125-1.621094-.324219-2.480469-.324219h-211.976562c-5.523438 0-10 4.476562-10 10v39.996094c0 5.523437 4.476562 10 10 10h183.015624c-1.964843 8.976562-2.980468 18.230468-2.980468 27.644531 0 19.75 4.453125 38.816406 12.871094 56.0625h-238.902344c-5.511719 0-10-4.484375-10-10v-160.042969c0-5.523437-4.476563-10-9.996094-10-5.523438 0-10 4.476563-10 10v160.042969c0 16.539063 13.457031 29.996094 29.996094 29.996094h251.050781c3.761719 5.070312 7.921875 9.894531 12.464844 14.441406 24.175781 24.171875 56.316406 37.484375 90.503906 37.484375 34.183594 0 66.324219-13.3125 90.5-37.484375 24.171875-24.175781 37.484375-56.316406 37.484375-90.5 0-34.1875-13.3125-66.328125-37.484375-90.5zm-388.523437 42.855469v-19.996094h189.320312c-3.980469 6.371094-7.371094 13.058594-10.152344 19.996094zm374.378906 124.003906c-20.394532 20.394531-47.511719 31.628906-76.355469 31.628906-28.847656 0-55.964844-11.234375-76.359375-31.632812-4.863281-4.859375-9.199219-10.109375-12.992188-15.667969-.109374-.171875-.226562-.335937-.34375-.5-11.898437-17.648437-18.296874-38.425781-18.296874-60.1875 0-28.847656 11.234374-55.964844 31.632812-76.359375 13.328125-13.328125 29.527344-22.742188 47.203125-27.667969 1.128906-.101562 2.199219-.390625 3.1875-.835937 8.398437-2.0625 17.101563-3.128906 25.96875-3.128906 28.84375 0 55.960937 11.234374 76.355469 31.632812 20.398437 20.394531 31.632812 47.511719 31.632812 76.359375 0 28.84375-11.234375 55.960937-31.632812 76.359375zm0 0"/><path d="m383.917969 449.96875c-5.519531 0-10 4.476562-10 10v7.207031c0 5.519531 4.480469 9.996094 10 9.996094 5.523437 0 10-4.476563 10-9.996094v-7.207031c0-5.523438-4.476563-10-10-10zm0 0"/><path d="m383.917969 318.058594c5.523437 0 10-4.476563 10-10v-7.207032c0-5.519531-4.476563-9.996093-10-9.996093-5.519531 0-10 4.476562-10 9.996093v7.207032c0 5.523437 4.480469 10 10 10zm0 0"/><path d="m308.058594 373.917969h-7.203125c-5.523438 0-10 4.476562-10 10 0 5.523437 4.476562 10 10 10h7.203125c5.523437 0 10-4.476563 10-10 0-5.523438-4.476563-10-10-10zm0 0"/><path d="m467.175781 374.109375h-7.207031c-5.523438 0-10 4.476563-10 10s4.476562 10 10 10h7.207031c5.519531 0 9.996094-4.476563 9.996094-10s-4.476563-10-9.996094-10zm0 0"/><path d="m429.957031 323.765625-45.859375 46.003906-18.40625-19.269531c-3.8125-3.996094-10.144531-4.136719-14.136718-.324219-3.992188 3.8125-4.136719 10.144531-.324219 14.136719l25.410156 26.609375c1.890625 1.972656 4.5 3.089844 7.230469 3.089844h.144531c2.65625 0 5.203125-1.058594 7.078125-2.9375l53.027344-53.191407c3.898437-3.910156 3.890625-10.242187-.023438-14.140624-3.910156-3.898438-10.242187-3.890626-14.140625.023437zm0 0"/></svg>