<svg height="512pt" viewBox="-106 0 512 512" width="512pt" xmlns="http://www.w3.org/2000/svg"><path d="m216.128906 222h-66v-10c0-38.660156 31.339844-70 70-70h66v10c0 38.660156-31.34375 70-70 70zm0 0" fill="#cbe558"/><path d="m150 178h-58c-38.660156 0-70-31.339844-70-70v-2h58c38.660156 0 70 31.339844 70 70zm0 0" fill="#d8ec84"/><path d="m219 104h-69v-14.5c0-22.089844 17.910156-40 40-40h69v14.5c0 22.089844-17.910156 40-40 40zm0 0" fill="#e2f1a1"/><path d="m150 59.769531h-49.769531c-27.488281 0-49.769531-22.28125-49.769531-49.769531h49.769531c27.488281 0 49.769531 22.28125 49.769531 49.769531zm0 0" fill="#f0f7cd"/><path d="m290 362c0 77.320312-62.679688 140-140 140s-140-62.679688-140-140 62.679688-140 140-140 140 62.679688 140 140zm0 0" fill="#ffc15a"/><path d="m250.128906 362c0 55.226562-44.773437 100-100 100-55.230468 0-100-44.773438-100-100s44.769532-100 100-100c55.226563 0 100 44.773438 100 100zm0 0" fill="#ffd89e"/><path d="m150.128906 472c60.652344 0 110-49.347656 110-110s-49.347656-110-110-110c-60.65625 0-110 49.347656-110 110s49.34375 110 110 110zm0-200c49.625 0 90 40.375 90 90s-40.375 90-90 90c-49.628906 0-90-40.375-90-90s40.371094-90 90-90zm0 0"/><path d="m224.070312 231.601562c40.398438-4 72.058594-38.171874 72.058594-79.601562v-10c0-5.523438-4.480468-10-10-10h-66c-23.949218 0-45.453125 10.589844-60.128906 27.316406v-45.316406h59c27.570312 0 50-22.429688 50-50v-14.5c0-5.523438-4.476562-10-10-10h-69c-11.605469 0-22.292969 3.984375-30.785156 10.644531-4.617188-28.394531-29.304688-50.144531-58.984375-50.144531h-49.769531c-5.523438 0-10 4.476562-10 10 0 32.957031 26.8125 59.769531 59.769531 59.769531h39.769531v53.398438c-14.671875-16.640625-36.121094-27.167969-60-27.167969h-58c-5.523438 0-10 4.476562-10 10v2c0 44.113281 35.886719 80 80 80h48v24.328125c-29.355469 1.914063-57.054688 12.234375-80.644531 30.148437-25.394531 19.285157-44.316407 46.671876-53.269531 77.109376-1.5625 5.296874 1.46875 10.855468 6.769531 12.414062 5.296875 1.5625 10.855469-1.472656 12.414062-6.769531 16.15625-54.890625 67.445313-93.230469 124.730469-93.230469 71.683594 0 130 58.316406 130 130s-58.316406 130-130 130c-57.28125 0-108.574219-38.335938-124.730469-93.226562-1.558593-5.300782-7.121093-8.332032-12.414062-6.769532-5.296875 1.558594-8.328125 7.117188-6.769531 12.414063 8.957031 30.4375 27.875 57.820312 53.273437 77.109375 26.25 19.933594 57.59375 30.472656 90.640625 30.472656 82.710938 0 150-67.289062 150-150 0-55.789062-30.617188-104.558594-75.929688-130.398438zm-132.070312-63.601562c-30.371094 0-55.546875-22.683594-59.46875-52h47.46875c30.371094 0 55.546875 22.683594 59.46875 52zm128.128906-16h56c0 33.085938-26.917968 60-60 60h-56c0-33.085938 26.914063-60 60-60zm-30.128906-92.5h59v4.5c0 16.542969-13.457031 30-30 30h-59v-4.5c0-16.542969 13.457031-30 30-30zm-89.769531-9.730469c-18.476563 0-34.050781-12.664062-38.496094-29.769531h38.496094c18.476562 0 34.050781 12.664062 38.496093 29.769531zm0 0"/><path d="m150.023438 392.3125c-6.617188 0-12-4.46875-12-9.964844 0-5.523437-4.480469-10-10-10-5.523438 0-10 4.476563-10 10 0 13.257813 9.242187 24.523438 22.007812 28.464844.105469 5.433594 4.53125 9.808594 9.992188 9.808594 5.457031 0 9.886718-4.375 9.988281-9.808594 12.765625-3.941406 22.011719-15.207031 22.011719-28.464844 0-16.523437-14.355469-29.964844-32-29.964844-6.617188 0-12-4.472656-12-9.96875 0-5.492187 5.382812-9.964843 12-9.964843 6.617187 0 12 4.472656 12 9.964843 0 5.523438 4.476562 10 10 10 5.519531 0 10-4.476562 10-10 0-13.25-9.242188-24.515624-22-28.457031v-.578125c0-5.523437-4.480469-10-10-10-5.523438 0-10 4.476563-10 10v.578125c-12.761719 3.941407-22 15.207031-22 28.457031 0 16.523438 14.355468 29.96875 32 29.96875 6.617187 0 12 4.46875 12 9.964844s-5.382813 9.964844-12 9.964844zm0 0"/><path d="m17.070312 369.070312c1.859376-1.859374 2.929688-4.441406 2.929688-7.070312s-1.070312-5.210938-2.929688-7.070312c-1.859374-1.859376-4.441406-2.929688-7.070312-2.929688s-5.210938 1.070312-7.070312 2.929688c-1.859376 1.859374-2.929688 4.441406-2.929688 7.070312s1.070312 5.210938 2.929688 7.070312c1.859374 1.859376 4.441406 2.929688 7.070312 2.929688s5.210938-1.070312 7.070312-2.929688zm0 0"/></svg>