<svg height="512pt" viewBox="0 -14 512 512" width="512pt" xmlns="http://www.w3.org/2000/svg"><path d="m388 474h-304c-11.046875 0-20-8.953125-20-20v-264c0-11.046875 8.953125-20 20-20h304c11.046875 0 20 8.953125 20 20v264c0 11.046875-8.953125 20-20 20zm0 0" fill="#e1e3e9"/><path d="m64 316h-34c-11.046875 0-20-8.953125-20-20v-48c0-11.046875 8.953125-20 20-20h34zm0 0" fill="#98a1b3"/><path d="m502 429-94-59v-112l94-59zm0 0" fill="#98a1b3"/><path d="m373.777344 90c0 44.183594-35.816406 80-80 80s-80-35.816406-80-80 35.816406-80 80-80 80 35.816406 80 80zm0 0" fill="#91def5"/><path d="m182.28125 122c0 26.507812-21.488281 48-48 48-26.507812 0-48-21.492188-48-48s21.492188-48 48-48c26.511719 0 48 21.492188 48 48zm0 0" fill="#91def5"/><path d="m363 410c0 13.253906-10.746094 24-24 24s-24-10.746094-24-24 10.746094-24 24-24 24 10.746094 24 24zm0 0" fill="#ff6977"/><path d="m313.777344 90c0 11.046875-8.953125 20-20 20s-20-8.953125-20-20 8.953125-20 20-20 20 8.953125 20 20zm0 0" fill="#f9fceb"/><path d="m150.28125 259.433594v19.234375c0 17.671875 14.328125 32 32 32 17.675781 0 32-14.328125 32-32v-19.234375zm0 0" fill="#ffddcf"/><path d="m182.28125 217.070312c17.675781 0 32 14.328126 32 32v10.363282h-64v-10.363282c0-17.671874 14.328125-32 32-32zm0 0" fill="#8690a6"/><path d="m198.832031 310.667969h-33.097656c-29.765625 0-53.894531 24.128906-53.894531 53.894531v11.34375h140.886718v-11.34375c0-29.765625-24.128906-53.894531-53.894531-53.894531zm0 0" fill="#91def5"/><path d="m506.839844 190.25c-3.183594-1.761719-7.074219-1.65625-10.15625.28125l-78.683594 49.382812v-49.914062c0-16.542969-13.457031-30-30-30h-37.726562c20.417968-16.511719 33.503906-41.753906 33.503906-70 0-49.625-40.375-90-90-90-49.628906 0-90 40.375-90 90 0 28.246094 13.082031 53.488281 33.5 70h-59.230469c8.855469-10.1875 14.234375-23.472656 14.234375-38 0-31.980469-26.015625-58-58-58-31.980469 0-58 26.019531-58 58 0 14.527344 5.382812 27.8125 14.238281 38h-6.519531c-16.542969 0-30 13.457031-30 30v28h-24c-16.542969 0-30 13.457031-30 30v48c0 16.542969 13.457031 30 30 30h24v128c0 16.542969 13.457031 30 30 30h304c16.542969 0 30-13.457031 30-30v-65.917969l78.683594 49.386719c1.621094 1.019531 3.46875 1.53125 5.316406 1.53125 1.664062 0 3.332031-.414062 4.839844-1.25 3.183594-1.761719 5.160156-5.109375 5.160156-8.75v-75c0-5.523438-4.476562-10-10-10s-10 4.476562-10 10v56.917969l-74-46.449219v-100.941406l74-46.445313v56.917969c0 5.523438 4.476562 10 10 10s10-4.476562 10-10v-75c0-3.640625-1.976562-6.988281-5.160156-8.75zm-283.0625-100.25c0-38.597656 31.402344-70 70-70s70 31.402344 70 70-31.402344 70-70 70-70-31.402344-70-70zm-127.496094 32c0-20.953125 17.046875-38 38-38s38 17.046875 38 38-17.046875 38-38 38-38-17.046875-38-38zm-66.28125 184c-5.515625 0-10-4.484375-10-10v-48c0-5.515625 4.484375-10 10-10h24v68zm368 148c0 5.515625-4.484375 10-10 10h-304c-5.515625 0-10-4.484375-10-10v-264c0-5.515625 4.484375-10 10-10h304c5.515625 0 10 4.484375 10 10zm0 0"/><path d="m363 245.667969h-88c-5.523438 0-10 4.476562-10 10 0 5.523437 4.476562 10 10 10h88c5.523438 0 10-4.476563 10-10 0-5.523438-4.476562-10-10-10zm0 0"/><path d="m357 303c0-5.523438-4.476562-10-10-10h-56c-5.523438 0-10 4.476562-10 10s4.476562 10 10 10h56c5.523438 0 10-4.476562 10-10zm0 0"/><path d="m339 376c-18.746094 0-34 15.253906-34 34s15.253906 34 34 34 34-15.253906 34-34-15.253906-34-34-34zm0 48c-7.71875 0-14-6.28125-14-14s6.28125-14 14-14 14 6.28125 14 14-6.28125 14-14 14zm0 0"/><path d="m293.777344 60c-16.542969 0-30 13.457031-30 30s13.457031 30 30 30c16.539062 0 30-13.457031 30-30s-13.460938-30-30-30zm0 40c-5.515625 0-10-4.484375-10-10s4.484375-10 10-10c5.511718 0 10 4.484375 10 10s-4.488282 10-10 10zm0 0"/><path d="m350.851562 97.070312c1.859376-1.859374 2.929688-4.441406 2.929688-7.070312s-1.070312-5.210938-2.929688-7.070312c-1.859374-1.859376-4.441406-2.929688-7.070312-2.929688-2.640625 0-5.210938 1.070312-7.082031 2.929688-1.859375 1.859374-2.917969 4.441406-2.917969 7.070312s1.058594 5.210938 2.917969 7.070312c1.871093 1.859376 4.441406 2.929688 7.082031 2.929688 2.628906 0 5.207031-1.070312 7.070312-2.929688zm0 0"/><path d="m293.777344 50c2.632812 0 5.210937-1.070312 7.070312-2.929688 1.863282-1.859374 2.929688-4.441406 2.929688-7.070312s-1.066406-5.210938-2.929688-7.070312c-1.859375-1.859376-4.4375-2.929688-7.070312-2.929688-2.636719 0-5.207032 1.070312-7.066406 2.929688-1.871094 1.859374-2.933594 4.441406-2.933594 7.070312s1.0625 5.210938 2.933594 7.070312c1.859374 1.859376 4.429687 2.929688 7.066406 2.929688zm0 0"/><path d="m243.777344 80c-2.636719 0-5.207032 1.070312-7.078125 2.929688-1.859375 1.859374-2.921875 4.441406-2.921875 7.070312s1.0625 5.210938 2.921875 7.070312c1.871093 1.859376 4.441406 2.929688 7.078125 2.929688 2.632812 0 5.210937-1.070312 7.070312-2.929688 1.863282-1.859374 2.929688-4.441406 2.929688-7.070312s-1.066406-5.210938-2.929688-7.070312c-1.859375-1.859376-4.4375-2.929688-7.070312-2.929688zm0 0"/><path d="m293.777344 130c-2.636719 0-5.207032 1.070312-7.066406 2.929688-1.871094 1.859374-2.933594 4.441406-2.933594 7.070312s1.0625 5.210938 2.933594 7.070312c1.859374 1.859376 4.429687 2.929688 7.066406 2.929688 2.632812 0 5.210937-1.070312 7.070312-2.929688 1.863282-1.859374 2.929688-4.441406 2.929688-7.070312s-1.066406-5.210938-2.929688-7.070312c-1.859375-1.859376-4.4375-2.929688-7.070312-2.929688zm0 0"/><path d="m134.277344 112c-2.628906 0-5.207032 1.070312-7.066406 2.929688-1.859376 1.859374-2.933594 4.441406-2.933594 7.070312s1.070312 5.210938 2.933594 7.070312c1.859374 1.859376 4.4375 2.929688 7.066406 2.929688 2.632812 0 5.210937-1.070312 7.082031-2.929688 1.859375-1.859374 2.917969-4.441406 2.917969-7.070312s-1.058594-5.210938-2.917969-7.070312c-1.871094-1.859376-4.449219-2.929688-7.082031-2.929688zm0 0"/><path d="m502 304c-2.628906 0-5.210938 1.070312-7.070312 2.929688-1.859376 1.859374-2.929688 4.441406-2.929688 7.070312s1.070312 5.210938 2.929688 7.070312c1.859374 1.859376 4.441406 2.929688 7.070312 2.929688s5.210938-1.070312 7.070312-2.929688c1.859376-1.859374 2.929688-4.441406 2.929688-7.070312s-1.070312-5.210938-2.929688-7.070312c-1.859374-1.859376-4.441406-2.929688-7.070312-2.929688zm0 0"/><path d="m216.851562 303.273438c4.667969-6.351563 7.429688-13.980469 7.429688-22.089844v-32.113282c0-23.160156-18.839844-42-42-42-23.15625 0-42 18.839844-42 42v10.363282c0 .316406.019531.625.046875.933594-.027344.308593-.046875.621093-.046875.9375v17.367187c0 9.125 2.9375 17.574219 7.898438 24.46875-26.71875 7.648437-46.339844 32.28125-46.339844 61.421875v11.34375c0 5.523438 4.476562 10 10 10h140.886718c5.523438 0 10-4.476562 10-10v-11.34375c0-28.972656-19.390624-53.492188-45.875-61.289062zm-56.570312-24.605469v-9.234375h17.765625c9.269531 0 18.316406-2.484375 26.234375-6.988282v18.738282c0 9.199218-9.40625 19.484375-22 19.484375-12.128906 0-22-9.867188-22-22zm0-29.597657c0-12.132812 9.871094-22 22-22 8.585938 0 16.039062 4.941407 19.664062 12.132813-6.1875 6.460937-14.875 10.230469-23.898437 10.230469h-17.765625zm82.445312 116.835938h-120.886718v-1.34375c0-24.203125 19.691406-43.894531 43.894531-43.894531h33.101563c24.199218 0 43.894531 19.691406 43.894531 43.894531v1.34375zm0 0"/></svg>