<svg height="512pt" viewBox="0 0 512 512" width="512pt" xmlns="http://www.w3.org/2000/svg"><path d="m502 502h-134v-80h134zm0 0" fill="#cff1fb"/><path d="m256 253c-61.855469 0-112-50.144531-112-112v-131h224v131c0 61.855469-50.144531 112-112 112zm0 0" fill="#ffd89e"/><path d="m328 382h-144v-18c0-20.433594 16.566406-37 37-37h70c20.433594 0 37 16.566406 37 37zm0 0" fill="#8690a6"/><path d="m234 327v-74h44v74zm0 0" fill="#ffcb7c"/><path d="m256 154.539062-23.324219 12.261719c-4.390625 2.308594-9.519531-1.417969-8.683593-6.308593l4.457031-25.972657-18.871094-18.390625c-3.550781-3.464844-1.589844-9.492187 3.316406-10.207031l26.078125-3.789063 11.664063-23.628906c2.191406-4.449218 8.535156-4.449218 10.726562 0l11.664063 23.628906 26.078125 3.789063c4.90625.714844 6.867187 6.742187 3.316406 10.207031l-18.871094 18.390625 4.457031 25.972657c.835938 4.890624-4.292968 8.617187-8.683593 6.308593zm0 0" fill="#ffc15a"/><path d="m10 438h134v64h-134zm0 0" fill="#cff1fb"/><path d="m295.820312 502h72.179688v-120h-224v120zm0 0" fill="#91def5"/><path d="m274.671875 175.652344c5.421875 2.851562 11.875 2.386718 16.832031-1.214844 4.957032-3.601562 7.394532-9.59375 6.355469-15.632812l-3.5625-20.792969 15.101563-14.722657c4.390624-4.277343 5.941406-10.554687 4.046874-16.382812-1.894531-5.828125-6.839843-10-12.902343-10.878906l-20.875-3.03125-9.335938-18.917969c-2.710937-5.496094-8.203125-8.910156-14.332031-8.910156s-11.621094 3.414062-14.332031 8.910156l-9.335938 18.917969-20.875 3.03125c-6.066406.882812-11.007812 5.050781-12.902343 10.878906-1.894532 5.828125-.34375 12.105469 4.042968 16.382812l15.105469 14.726563-3.566406 20.789063c-1.035157 6.039062 1.398437 12.03125 6.359375 15.632812 2.800781 2.035156 6.078125 3.070312 9.378906 3.070312 2.539062 0 5.09375-.613281 7.453125-1.855468l18.671875-9.816406zm-39.445313-21.492188 3.078126-17.949218c.558593-3.242188-.519532-6.554688-2.875-8.851563l-13.039063-12.710937 18.019531-2.617188c3.257813-.472656 6.074219-2.519531 7.53125-5.472656l8.058594-16.332032 8.058594 16.332032c1.457031 2.953125 4.273437 5 7.53125 5.472656l18.019531 2.617188-13.039063 12.710937c-2.355468 2.296875-3.433593 5.609375-2.875 8.851563l3.078126 17.949218-16.121094-8.472656c-1.457032-.765625-3.054688-1.148438-4.652344-1.148438s-3.195312.382813-4.652344 1.148438zm0 0"/><path d="m502 412h-124v-30c0-5.523438-4.476562-10-10-10h-30v-8c0-25.914062-21.085938-47-47-47h-3v-58.265625c37.9375-10.324219 68.574219-38.53125 82.257812-74.972656 39.5-2.949219 70.742188-36.003907 70.742188-76.242188v-34.269531c0-18.335938-14.914062-33.25-33.25-33.25h-29.75v-30c0-5.523438-4.476562-10-10-10h-224c-5.523438 0-10 4.476562-10 10v30h-29.75c-18.335938 0-33.25 14.914062-33.25 33.25v34.269531c0 40.238281 31.242188 73.292969 70.742188 76.242188 13.683593 36.441406 44.320312 64.648437 82.257812 74.972656v58.265625h-3c-25.914062 0-47 21.085938-47 47v8h-30c-5.523438 0-10 4.476562-10 10v46h-124c-5.523438 0-10 4.476562-10 10v64c0 5.523438 4.476562 10 10 10h206.675781c5.523438 0 10-4.476562 10-10s-4.476562-10-10-10h-62.675781v-100h204v100h-61.679688c-5.523437 0-10 4.476562-10 10s4.476563 10 10 10h205.679688c5.523438 0 10-4.476562 10-10v-80c0-5.523438-4.476562-10-10-10zm-482 36h114v44h-114zm387.75-388c7.304688 0 13.25 5.945312 13.25 13.25v34.269531c0 27.195313-19.320312 49.957031-44.957031 55.292969 1.285156-7.078125 1.957031-14.367188 1.957031-21.8125v-81zm-316.75 47.519531v-34.269531c0-7.304688 5.945312-13.25 13.25-13.25h29.75v81c0 7.445312.671875 14.734375 1.957031 21.8125-25.636719-5.335938-44.957031-28.097656-44.957031-55.292969zm63 33.480469v-121h204v121c0 56.242188-45.757812 102-102 102s-102-45.757812-102-102zm90 121.410156c3.949219.386719 7.949219.589844 12 .589844s8.050781-.203125 12-.589844v54.589844h-24zm-50 109.589844v-8c0-14.886719 12.113281-27 27-27h70c14.886719 0 27 12.113281 27 27v8zm298 120h-114v-60h114zm0 0"/><path d="m256.5 492c-2.628906 0-5.210938 1.070312-7.070312 2.929688-1.871094 1.859374-2.929688 4.441406-2.929688 7.070312s1.058594 5.210938 2.929688 7.070312c1.859374 1.859376 4.441406 2.929688 7.070312 2.929688s5.210938-1.070312 7.070312-2.929688c1.859376-1.859374 2.929688-4.441406 2.929688-7.070312s-1.070312-5.210938-2.929688-7.070312c-1.859374-1.859376-4.441406-2.929688-7.070312-2.929688zm0 0"/></svg>