<svg height="512pt" viewBox="0 0 512 512" width="512pt" xmlns="http://www.w3.org/2000/svg"><path d="m482 320h-88c-11.046875 0-20-8.953125-20-20v-88c0-11.046875 8.953125-20 20-20h88c11.046875 0 20 8.953125 20 20v88c0 11.046875-8.953125 20-20 20zm0 0" fill="#ffcb7c"/><path d="m482 502h-88c-11.046875 0-20-8.953125-20-20v-88c0-11.046875 8.953125-20 20-20h88c11.046875 0 20 8.953125 20 20v88c0 11.046875-8.953125 20-20 20zm0 0" fill="#f6838d"/><path d="m482 138h-88c-11.046875 0-20-8.953125-20-20v-88c0-11.046875 8.953125-20 20-20h88c11.046875 0 20 8.953125 20 20v88c0 11.046875-8.953125 20-20 20zm0 0" fill="#cbe558"/><path d="m155.765625 301.5625h80v80h-80zm0 0" fill="#d29976"/><path d="m155.882812 256.128906v24.492188c0 11.566406 9.375 20.941406 20.941407 20.941406 11.566406 0 20.941406-9.375 20.941406-20.941406v-114.722656c0-36.9375-29.941406-66.882813-66.878906-66.882813h-54.003907c-36.9375 0-66.882812 29.941406-66.882812 66.882813v114.722656c0 11.566406 9.378906 20.941406 20.941406 20.941406 11.570313 0 20.945313-9.375 20.945313-20.941406v-24.492188zm0 0" fill="#91def5"/><path d="m155.886719 256.128906v234.8125c0 6.109375-4.949219 11.058594-11.058594 11.058594h-29.886719c-6.105468 0-11.054687-4.949219-11.054687-11.058594v-162.355468 162.359374c0 6.105469-4.949219 11.054688-11.058594 11.054688h-29.886719c-6.105468 0-11.054687-4.949219-11.054687-11.054688v-234.816406zm0 0" fill="#ffcb7c"/><path d="m103.886719 10c23.046875 0 41.730469 18.683594 41.730469 41.734375v5.5625c0 23.046875-18.683594 41.734375-41.730469 41.734375s-41.734375-18.683594-41.734375-41.734375v-5.5625c0-23.050781 18.6875-41.734375 41.734375-41.734375zm0 0" fill="#ffddcf"/><path d="m235.765625 291.5625h-30.003906c1.292969-3.40625 2.003906-7.089844 2.003906-10.941406v-114.726563c0-37.976562-27.683594-69.589843-63.929687-75.765625 7.359374-8.941406 11.78125-20.378906 11.78125-32.832031v-5.5625c0-28.527344-23.207032-51.734375-51.730469-51.734375-28.527344 0-51.734375 23.207031-51.734375 51.734375v5.5625c0 12.453125 4.425781 23.890625 11.78125 32.828125-36.246094 6.175781-63.933594 37.792969-63.933594 75.769531v114.726563c0 17.0625 13.882812 30.941406 30.941406 30.941406 3.855469 0 7.539063-.710938 10.945313-2.003906v181.382812c0 11.613282 9.445312 21.058594 21.054687 21.058594h29.886719c4.058594 0 7.839844-1.175781 11.058594-3.171875 3.21875 1.996094 7 3.171875 11.054687 3.171875h29.886719c11.613281 0 21.058594-9.445312 21.058594-21.058594v-99.378906h69.878906c5.519531 0 10-4.476562 10-10v-80c0-5.523438-4.476563-10-10-10zm-163.613281-239.828125c0-17.5 14.238281-31.734375 31.734375-31.734375 17.496093 0 31.730469 14.234375 31.730469 31.734375v5.5625c0 17.292969-13.902344 31.386719-31.113282 31.71875h-.5625c-.019531 0-.039062 0-.058594 0-.019531 0-.039062 0-.058593 0h-.554688c-17.210937-.332031-31.117187-14.425781-31.117187-31.71875zm-41.210938 239.828125c-6.03125 0-10.941406-4.910156-10.941406-10.941406v-114.726563c0-31.363281 25.515625-56.878906 56.882812-56.878906h17.003907v32.984375c0 5.523438 4.476562 10 10 10 5.523437 0 10-4.476562 10-10v-32.984375h17c31.363281 0 56.878906 25.515625 56.878906 56.878906v114.726563c0 6.03125-4.90625 10.941406-10.941406 10.941406-6 0-10.878907-4.851562-10.9375-10.835938v-24.597656c0-.039062-.003907-.074218-.003907-.109375v-64.242187c0-5.519532-4.480468-10-10-10-5.523437 0-10 4.480468-10 10v54.351562h-83.996093v-54.351562c0-5.519532-4.476563-10-10-10-5.523438 0-10 4.480468-10 10v88.84375c0 6.03125-4.910157 10.941406-10.945313 10.941406zm113.886719 200.4375h-29.886719c-.582031 0-1.054687-.472656-1.054687-1.058594v-162.355468c0-5.523438-4.476563-10-10-10-5.523438 0-10 4.476562-10 10v162.355468c0 .585938-.476563 1.058594-1.058594 1.058594h-29.886719c-.582031 0-1.054687-.472656-1.054687-1.058594v-224.8125h83.996093l.003907 224.8125c0 .585938-.476563 1.058594-1.058594 1.058594zm80.9375-120.4375h-59.878906v-60h59.878906zm0 0"/><path d="m330 68h-40c-5.523438 0-10 4.476562-10 10v50c0 5.523438 4.476562 10 10 10s10-4.476562 10-10v-40h30c5.523438 0 10-4.476562 10-10s-4.476562-10-10-10zm0 0"/><path d="m330 266c5.523438 0 10-4.476562 10-10s-4.476562-10-10-10h-30v-38c0-5.523438-4.476562-10-10-10s-10 4.476562-10 10v226c0 5.523438 4.476562 10 10 10h40c5.523438 0 10-4.476562 10-10s-4.476562-10-10-10h-30v-158zm0 0"/><path d="m290 178c2.628906 0 5.210938-1.070312 7.070312-2.929688 1.859376-1.859374 2.929688-4.441406 2.929688-7.070312s-1.070312-5.210938-2.929688-7.070312c-1.859374-1.859376-4.441406-2.929688-7.070312-2.929688s-5.210938 1.070312-7.070312 2.929688c-1.859376 1.859374-2.929688 4.441406-2.929688 7.070312s1.070312 5.210938 2.929688 7.070312c1.859374 1.859376 4.441406 2.929688 7.070312 2.929688zm0 0"/><path d="m482 182h-88c-16.542969 0-30 13.457031-30 30v88c0 16.542969 13.457031 30 30 30h88c16.542969 0 30-13.457031 30-30v-88c0-16.542969-13.457031-30-30-30zm10 118c0 5.515625-4.484375 10-10 10h-88c-5.515625 0-10-4.484375-10-10v-88c0-5.515625 4.484375-10 10-10h88c5.515625 0 10 4.484375 10 10zm0 0"/><path d="m482 364h-88c-16.542969 0-30 13.457031-30 30v88c0 16.542969 13.457031 30 30 30h88c16.542969 0 30-13.457031 30-30v-88c0-16.542969-13.457031-30-30-30zm10 118c0 5.515625-4.484375 10-10 10h-88c-5.515625 0-10-4.484375-10-10v-88c0-5.515625 4.484375-10 10-10h88c5.515625 0 10 4.484375 10 10zm0 0"/><path d="m482 0h-88c-16.542969 0-30 13.457031-30 30v88c0 16.542969 13.457031 30 30 30h88c16.542969 0 30-13.457031 30-30v-88c0-16.542969-13.457031-30-30-30zm10 118c0 5.515625-4.484375 10-10 10h-88c-5.515625 0-10-4.484375-10-10v-88c0-5.515625 4.484375-10 10-10h88c5.515625 0 10 4.484375 10 10zm0 0"/></svg>