<svg height="511pt" viewBox="-124 1 511 511.999" width="511pt" xmlns="http://www.w3.org/2000/svg"><path d="m119.011719 497.308594-101.371094-91.125c-5.960937-5-8.480469-13-6.464844-20.511719l68.691407-255.675781h103.996093l68.691407 255.675781c2.015624 7.511719-.503907 15.511719-6.464844 20.511719l-101.375 91.125c-7.433594 6.238281-18.269532 6.238281-25.703125 0zm0 0" fill="#60a4ff"/><path d="m18.757812 407.1875 59.578126 53.554688h-.003907l153.222657-153.222657-23.957032-89.175781-188.804687 188.808594" fill="#cee3ff"/><path d="m42.050781 270.757812 37.816407-140.761718h102.945312" fill="#cee3ff"/><path d="m183.863281 129.996094h-103.996093l-37.027344-92.570313c-5.257813-13.136719 4.417968-27.425781 18.566406-27.425781h140.917969c14.148437 0 23.824219 14.289062 18.570312 27.425781zm0 0" fill="#60a4ff"/><path d="m76.957031 122.722656 2.910157 7.273438h103.996093l37.027344-92.570313c5.257813-13.136719-4.417969-27.425781-18.570313-27.425781h-12.644531l-112.71875 112.71875" fill="#cee3ff"/><path d="m194.386719 130.617188 35.789062-89.476563c3.703125-9.253906 2.578125-19.707031-3.011719-27.960937-5.585937-8.25-14.875-13.179688-24.84375-13.179688h-12.640624c-.003907 0-.007813 0-.011719 0h-128.261719c-9.964844 0-19.253906 4.929688-24.839844 13.179688-5.589844 8.253906-6.714844 18.707031-3.011718 27.960937l34.109374 85.28125c.015626.035156.03125.070313.042969.105469l1.636719 4.089844-67.824219 252.460937c-3 11.160156.75 23.167969 9.550781 30.648437l101.257813 91.019532c.085937.078125.171875.152344.257813.226562 5.585937 4.683594 12.429687 7.027344 19.277343 7.027344 6.847657 0 13.695313-2.34375 19.277344-7.027344.089844-.074218.175781-.148437.261719-.226562l101.257812-91.019532c8.800782-7.480468 12.546875-19.488281 9.550782-30.648437zm-106.851563 9.378906h71.136719l-97.269531 97.265625zm123.066406-115.601563c1.890626 2.789063 2.257813 6.1875 1.003907 9.320313l-34.511719 86.28125h-83.273438l99.996094-99.996094h8.503906c3.375 0 6.390626 1.601562 8.28125 4.394531zm-157.472656 0c1.886719-2.792969 4.90625-4.394531 8.277344-4.394531h104.125l-84.921875 84.925781-28.484375-71.210937c-1.253906-3.132813-.890625-6.53125 1.003906-9.320313zm-32.292968 363.871094 30.175781-112.328125 127.460937-127.460938 17.96875 66.882813-62.035156 62.03125c-3.902344 3.90625-3.902344 10.238281 0 14.144531 1.953125 1.953125 4.511719 2.929688 7.074219 2.929688 2.558593 0 5.117187-.976563 7.070312-2.929688l53.878907-53.882812 17.96875 66.882812-142.433594 142.433594-44.679688-40.167969 58.699219-58.699219c3.902344-3.902343 3.902344-10.234374 0-14.140624-3.90625-3.90625-10.238281-3.90625-14.144531 0l-57.324219 57.324218c-.042969-1.003906.050781-2.019531.320313-3.019531zm218.828124 10.257813c-.085937.070312-.175781.148437-.257812.226562l-101.226562 90.988281c-3.683594 3.003907-8.949219 3.003907-12.632813 0l-32.6875-29.382812 133.527344-133.527344 16.507812 61.4375c1.003907 3.742187-.261719 7.765625-3.230469 10.257813zm0 0"/><path d="m113.195312 322.75c2.628907 0 5.210938-1.070312 7.070313-2.929688 1.859375-1.867187 2.929687-4.4375 2.929687-7.070312 0-2.636719-1.070312-5.207031-2.929687-7.066406-1.859375-1.871094-4.441406-2.933594-7.070313-2.933594-2.628906 0-5.210937 1.0625-7.070312 2.933594-1.859375 1.859375-2.929688 4.429687-2.929688 7.066406 0 2.632812 1.070313 5.203125 2.929688 7.070312 1.859375 1.859376 4.441406 2.929688 7.070312 2.929688zm0 0"/></svg>