<svg height="512pt" viewBox="0 -20 512 512" width="512pt" xmlns="http://www.w3.org/2000/svg"><path d="m444 134h-376c-11.046875 0-20 8.953125-20 20v252h416v-252c0-11.046875-8.953125-20-20-20zm0 0" fill="#dff6fc"/><path d="m446 462h-380c-30.929688 0-56-25.070312-56-56h492c0 30.929688-25.070312 56-56 56zm0 0" fill="#91def5"/><path d="m360.128906 324h-212c-5.523437 0-10-4.476562-10-10v-294c0-5.523438 4.476563-10 10-10h212c5.519532 0 10 4.476562 10 10v294c0 5.523438-4.480468 10-10 10zm0 0" fill="#fff"/><path d="m322.128906 125c0 37.554688-30.445312 68-68 68-37.558594 0-68-30.445312-68-68s30.441406-68 68-68c37.554688 0 68 30.445312 68 68zm0 0" fill="#60a4ff"/><path d="m254.128906 193c17.285156 0 33.066406-6.457031 45.0625-17.082031-5.390625-19.839844-23.519531-34.433594-45.0625-34.433594-21.546875 0-39.675781 14.59375-45.066406 34.433594 11.996094 10.628906 27.777344 17.082031 45.066406 17.082031zm0 0" fill="#91def5"/><path d="m275.453125 114.828125v5.332031c0 11.777344-9.546875 21.324219-21.324219 21.324219-11.78125 0-21.328125-9.546875-21.328125-21.324219v-5.332031c0-11.777344 9.546875-21.328125 21.328125-21.328125 11.777344 0 21.324219 9.550781 21.324219 21.328125zm0 0" fill="#ffddcf"/><path d="m502 396h-28v-242c0-16.542969-13.457031-30-30-30h-63.871094v-104c0-11.027344-8.972656-20-20-20h-212c-11.03125 0-20 8.972656-20 20v104h-60.128906c-16.542969 0-30 13.457031-30 30v76c0 5.523438 4.476562 10 10 10s10-4.476562 10-10v-76c0-5.515625 4.484375-10 10-10h60.128906v170c0 11.027344 8.96875 20 20 20h212c11.027344 0 20-8.972656 20-20v-170h63.871094c5.515625 0 10 4.484375 10 10v242h-396v-86c0-5.523438-4.476562-10-10-10s-10 4.476562-10 10v86h-28c-5.523438 0-10 4.476562-10 10 0 36.394531 29.605469 66 66 66h380c36.394531 0 66-29.605469 66-66 0-5.523438-4.476562-10-10-10zm-141.871094-82h-212v-294h212l.011719 294s-.003906 0-.011719 0zm85.871094 138h-380c-21.929688 0-40.328125-15.429688-44.90625-36h469.8125c-4.578125 20.570312-22.976562 36-44.90625 36zm0 0"/><path d="m48 280c2.628906 0 5.210938-1.070312 7.070312-2.929688 1.859376-1.859374 2.929688-4.441406 2.929688-7.070312s-1.070312-5.210938-2.929688-7.070312c-1.859374-1.859376-4.441406-2.929688-7.070312-2.929688s-5.210938 1.070312-7.070312 2.929688c-1.859376 1.859374-2.929688 4.441406-2.929688 7.070312s1.070312 5.210938 2.929688 7.070312c1.859374 1.859376 4.441406 2.929688 7.070312 2.929688zm0 0"/><path d="m312.128906 227h-116c-5.523437 0-10 4.476562-10 10s4.476563 10 10 10h116c5.519532 0 10-4.476562 10-10s-4.480468-10-10-10zm0 0"/><path d="m291.273438 267h-74.292969c-5.523438 0-10 4.476562-10 10s4.476562 10 10 10h74.292969c5.523437 0 10-4.476562 10-10s-4.476563-10-10-10zm0 0"/><path d="m254.128906 47c-43.011718 0-78 34.992188-78 78 0 22.90625 9.925782 43.535156 25.703125 57.820312.429688.449219.902344.859376 1.417969 1.226563 13.667969 11.796875 31.445312 18.953125 50.878906 18.953125 19.421875 0 37.195313-7.152344 50.863282-18.941406.523437-.375 1.003906-.789063 1.441406-1.25 15.769531-14.28125 25.695312-34.90625 25.695312-57.808594 0-43.007812-34.992187-78-78-78zm-33.203125 125.515625c5.972657-12.636719 18.84375-21.03125 33.203125-21.03125 14.355469 0 27.222656 8.394531 33.199219 21.03125-9.414063 6.597656-20.859375 10.484375-33.199219 10.484375-12.34375 0-23.789062-3.886719-33.203125-10.484375zm21.875-52.355469v-5.332031c0-6.246094 5.082031-11.328125 11.328125-11.328125 6.242188 0 11.324219 5.082031 11.324219 11.328125v5.332031c0 6.246094-5.082031 11.324219-11.324219 11.324219-6.246094 0-11.328125-5.082031-11.328125-11.324219zm59.164063 37.585938c-5.433594-8.511719-13.042969-15.394532-21.945313-19.976563 3.425781-5.019531 5.433594-11.085937 5.433594-17.613281v-5.332031c0-17.269531-14.050781-31.324219-31.324219-31.324219-17.277344 0-31.328125 14.054688-31.328125 31.324219v5.332031c0 6.527344 2.007813 12.59375 5.4375 17.613281-8.902343 4.582031-16.511719 11.464844-21.949219 19.976563-6.402343-9.324219-10.160156-20.601563-10.160156-32.746094 0-31.980469 26.015625-58 58-58 31.980469 0 58 26.019531 58 58 0 12.144531-3.761718 23.421875-10.164062 32.746094zm0 0"/></svg>