<svg height="512pt" viewBox="0 0 512 511" width="512pt" xmlns="http://www.w3.org/2000/svg"><path d="m404 274.417969c54.125 0 98-43.878907 98-98 0-54.125-43.875-98-98-98-23.363281 0-44.8125 8.179687-61.652344 21.824219-17.605468-52.175782-66.941406-89.742188-125.058594-89.742188-72.878906 0-131.957031 59.078125-131.957031 131.957031 0 2.046875.050781 4.082031.144531 6.105469-3.878906-.742188-7.878906-1.144531-11.976562-1.144531-35.070312 0-63.5 28.429687-63.5 63.5 0 35.070312 28.429688 63.5 63.5 63.5zm0 0" fill="#cff1fb"/><path d="m193.074219 502.417969c-11.046875 0-20-8.957031-20-20v-273c0-11.046875 8.953125-20 20-20 11.042969 0 20 8.953125 20 20v273c0 11.042969-8.957031 20-20 20zm0 0" fill="#ffd89e"/><path d="m345.074219 502.417969c-11.046875 0-20-8.957031-20-20v-273c0-11.046875 8.953125-20 20-20 11.042969 0 20 8.953125 20 20v273c0 11.042969-8.957031 20-20 20zm0 0" fill="#ffd89e"/><path d="m404 68.417969c-20.167969 0-39.980469 5.707031-56.996094 16.269531-22.609375-50.859375-73.191406-84.1875-129.714844-84.1875-22.855468 0-45.574218 5.5625-65.703124 16.089844-4.894532 2.558594-6.785157 8.601562-4.226563 13.496094 2.5625 4.894531 8.601563 6.785156 13.496094 4.226562 17.523437-9.164062 36.511719-13.8125 56.433593-13.8125 52.394532 0 98.84375 33.332031 115.585938 82.941406 1.046875 3.101563 3.546875 5.496094 6.691406 6.40625 3.144532.914063 6.535156.226563 9.078125-1.835937 15.820313-12.820313 34.960938-19.59375 55.355469-19.59375 48.523438 0 88 39.476562 88 88 0 48.523437-39.476562 88-88 88h-28.929688v-55c0-16.542969-13.457031-30-30-30-16.542968 0-30 13.457031-30 30v7h-92v-7c0-16.542969-13.457031-30-30-30-16.542968 0-30 13.457031-30 30v55h-89.570312c-29.5 0-53.5-24-53.5-53.5s24-53.5 53.5-53.5c3.34375 0 6.742188.324219 10.101562.964843 3.003907.574219 6.109376-.261718 8.421876-2.265624 2.3125-2 3.582031-4.953126 3.441406-8.011719-.089844-2.003907-.132813-3.851563-.132813-5.648438 0-19.621093 4.511719-38.347656 13.414063-55.667969 2.523437-4.910156.585937-10.9375-4.324219-13.464843-4.910156-2.523438-10.941406-.589844-13.464844 4.324219-9.464843 18.410156-14.796875 38.984374-15.539062 59.792968-.640625-.015625-1.277344-.027344-1.917969-.027344-40.527344 0-73.5 32.972657-73.5 73.5 0 40.53125 32.972656 73.5 73.5 73.5h89.570312v198c0 16.542969 13.460938 30 30 30 16.542969 0 30-13.457031 30-30v-6h92v6c0 16.542969 13.460938 30 30 30 16.542969 0 30-13.457031 30-30v-198h28.929688c59.550781 0 108-48.449218 108-108 0-59.550781-48.449219-107.996093-108-107.996093zm-180.929688 264h92v28h-92zm92-20h-92v-28h92zm-92 68h92v28h-92zm92-144v28h-92v-28zm-112 246c0 5.511719-4.484374 10-10 10-5.511718 0-10-4.488281-10-10v-273c0-5.515625 4.488282-10 10-10 5.515626 0 10 4.484375 10 10zm20-26v-28h92v28zm132 26c0 5.511719-4.484374 10-10 10-5.511718 0-10-4.488281-10-10v-273c0-5.515625 4.488282-10 10-10 5.515626 0 10 4.484375 10 10zm0 0"/><path d="m123.671875 59.46875c2.628906 0 5.207031-1.070312 7.070313-2.933594 1.859374-1.859375 2.929687-4.4375 2.929687-7.066406 0-2.632812-1.070313-5.210938-2.929687-7.070312-1.863282-1.863282-4.441407-2.929688-7.070313-2.929688-2.640625 0-5.210937 1.066406-7.070313 2.929688-1.871093 1.859374-2.929687 4.4375-2.929687 7.070312 0 2.628906 1.058594 5.207031 2.929687 7.066406 1.859376 1.863282 4.429688 2.933594 7.070313 2.933594zm0 0"/></svg>