<svg height="512pt" viewBox="-20 0 512 512" width="512pt" xmlns="http://www.w3.org/2000/svg"><path d="m422 390h-372c-22.089844 0-40-17.910156-40-40v-246c0-22.089844 17.910156-40 40-40h372c22.089844 0 40 17.910156 40 40v246c0 22.089844-17.910156 40-40 40zm0 0" fill="#dff6fc"/><path d="m10 330.871094v19.128906c0 22.089844 17.910156 40 40 40h372c22.089844 0 40-17.910156 40-40v-19.128906zm0 0" fill="#91def5"/><path d="m332 502h-192c0-26.511719 21.488281-48 48-48h96c26.511719 0 48 21.488281 48 48zm0 0" fill="#91def5"/><path d="m196 390h80v64h-80zm0 0" fill="#00ccf2"/><path d="m76 10h320v320.871094h-320zm0 0" fill="#fff"/><path d="m302.128906 118c0 37.554688-30.445312 68-68 68-37.558594 0-68-30.445312-68-68s30.441406-68 68-68c37.554688 0 68 30.445312 68 68zm0 0" fill="#60a4ff"/><path d="m234.128906 186c17.285156 0 33.066406-6.457031 45.0625-17.082031-5.390625-19.839844-23.519531-34.433594-45.0625-34.433594-21.546875 0-39.675781 14.59375-45.066406 34.433594 11.996094 10.628906 27.777344 17.082031 45.066406 17.082031zm0 0" fill="#91def5"/><path d="m255.453125 107.828125v5.332031c0 11.777344-9.546875 21.324219-21.324219 21.324219-11.78125 0-21.328125-9.546875-21.328125-21.324219v-5.332031c0-11.777344 9.546875-21.328125 21.328125-21.328125 11.777344 0 21.324219 9.550781 21.324219 21.328125zm0 0" fill="#ffddcf"/><path d="m422 54h-16v-44c0-5.523438-4.476562-10-10-10h-320c-5.523438 0-10 4.476562-10 10v44h-16c-27.570312 0-50 22.429688-50 50v246c0 27.570312 22.429688 50 50 50h136v44.050781c-31.058594 1.058594-56 26.636719-56 57.949219 0 5.523438 4.476562 10 10 10h192c5.523438 0 10-4.476562 10-10 0-31.3125-24.941406-56.890625-56-57.949219v-44.050781h136c27.570312 0 50-22.429688 50-50v-246c0-27.570312-22.429688-50-50-50zm0 20c16.542969 0 30 13.457031 30 30v216.867188h-46v-246.867188zm-336-54h300v300.867188h-300zm-36 54h16v246.867188h-46v-216.867188c0-16.542969 13.457031-30 30-30zm270.664062 418h-169.328124c4.398437-16.117188 19.171874-28 36.664062-28h96c17.492188 0 32.265625 11.882812 36.664062 28zm-54.664062-48h-60v-44h60zm156-64h-372c-16.542969 0-30-13.457031-30-30v-9.132812h432v9.132812c0 16.542969-13.457031 30-30 30zm0 0"/><path d="m236 350.429688c-2.628906 0-5.210938 1.070312-7.070312 2.929687-1.859376 1.871094-2.929688 4.441406-2.929688 7.082031 0 2.628906 1.070312 5.199219 2.929688 7.070313 1.859374 1.859375 4.441406 2.929687 7.070312 2.929687s5.210938-1.070312 7.070312-2.929687c1.859376-1.871094 2.929688-4.441407 2.929688-7.070313 0-2.640625-1.070312-5.210937-2.929688-7.082031-1.859374-1.859375-4.441406-2.929687-7.070312-2.929687zm0 0"/><path d="m333.339844 224.871094h-154.679688c-5.523437 0-10 4.476562-10 10 0 5.523437 4.476563 10 10 10h154.679688c5.523437 0 10-4.476563 10-10 0-5.523438-4.476563-10-10-10zm0 0"/><path d="m333.339844 272.867188h-154.679688c-5.523437 0-10 4.480468-10 10 0 5.523437 4.476563 10 10 10h154.679688c5.523437 0 10-4.476563 10-10 0-5.519532-4.476563-10-10-10zm0 0"/><path d="m138.660156 224.871094c-2.628906 0-5.210937 1.070312-7.070312 2.929687s-2.929688 4.4375-2.929688 7.070313c0 2.628906 1.070313 5.207031 2.929688 7.070312 1.859375 1.859375 4.441406 2.929688 7.070312 2.929688s5.210938-1.070313 7.070313-2.929688c1.859375-1.863281 2.929687-4.441406 2.929687-7.070312 0-2.632813-1.070312-5.210938-2.929687-7.070313s-4.441407-2.929687-7.070313-2.929687zm0 0"/><path d="m138.660156 272.871094c-2.628906 0-5.210937 1.066406-7.070312 2.929687-1.859375 1.859375-2.929688 4.4375-2.929688 7.070313 0 2.628906 1.070313 5.207031 2.929688 7.066406 1.859375 1.863281 4.441406 2.933594 7.070312 2.933594s5.210938-1.070313 7.070313-2.933594c1.859375-1.859375 2.929687-4.4375 2.929687-7.066406 0-2.632813-1.070312-5.210938-2.929687-7.070313-1.859375-1.863281-4.441407-2.929687-7.070313-2.929687zm0 0"/><path d="m181.828125 175.816406c.429687.453125.90625.867188 1.425781 1.234375 13.667969 11.792969 31.445313 18.949219 50.875 18.949219 19.421875 0 37.199219-7.152344 50.867188-18.945312.519531-.371094 1-.785157 1.433594-1.242188 15.773437-14.28125 25.699218-34.910156 25.699218-57.8125 0-43.011719-34.992187-78-78-78-43.011718 0-78 34.992188-78 78 0 22.90625 9.925782 43.53125 25.699219 57.816406zm19.097656-10.300781c5.976563-12.636719 18.847657-21.03125 33.203125-21.03125 14.355469 0 27.226563 8.394531 33.199219 21.03125-9.414063 6.597656-20.859375 10.484375-33.199219 10.484375-12.34375 0-23.789062-3.886719-33.203125-10.484375zm21.875-52.355469v-5.332031c0-6.246094 5.082031-11.328125 11.328125-11.328125 6.242188 0 11.324219 5.082031 11.324219 11.328125v5.332031c0 6.246094-5.082031 11.324219-11.324219 11.324219-6.246094 0-11.328125-5.082031-11.328125-11.324219zm11.328125-53.160156c31.980469 0 58 26.019531 58 58 0 12.144531-3.761718 23.421875-10.164062 32.746094-5.433594-8.511719-13.042969-15.394532-21.945313-19.972656 3.425781-5.023438 5.433594-11.089844 5.433594-17.613282v-5.332031c0-17.273437-14.050781-31.328125-31.324219-31.328125-17.273437 0-31.328125 14.054688-31.328125 31.328125v5.332031c0 6.523438 2.007813 12.589844 5.4375 17.613282-8.902343 4.578124-16.511719 11.460937-21.949219 19.972656-6.402343-9.324219-10.160156-20.601563-10.160156-32.746094 0-31.980469 26.015625-58 58-58zm0 0"/></svg>