<svg height="512pt" viewBox="-74 0 512 512" width="512pt" xmlns="http://www.w3.org/2000/svg"><path d="m50 502h264c22.089844 0 40-17.910156 40-40v-224c0-22.089844-17.910156-40-40-40h-264c-22.089844 0-40 17.910156-40 40v224c0 22.089844 17.910156 40 40 40zm0 0" fill="#b0e7f8"/><path d="m182 10c-61.855469 0-112 50.144531-112 112v76h224v-76c0-61.855469-50.144531-112-112-112zm0 0" fill="#91def5"/><path d="m182 50c-39.765625 0-72 32.234375-72 72v76h144v-76c0-39.765625-32.234375-72-72-72zm0 0" fill="#fff"/><path d="m169.203125 383.074219c-3.976563 0-7.203125-3.226563-7.203125-7.203125v-9.644532c0-20.511718 11.46875-39.664062 29.933594-49.988281 7.363281-4.117187 11.445312-12.347656 10.269531-20.828125-1.320313-9.507812-10.75-17.488281-20.347656-17.417968-7.023438.054687-13.460938 3.582031-17.480469 9.996093-1.964844 3.132813-2.765625 6.816407-2.78125 10.515625-.054688 11.023438-9.03125 19.9375-20.078125 19.898438-11.332031-.042969-20.140625-9.882813-19.910156-21.214844.335937-16.710938 7.621093-32.617188 20.105469-43.792969 12.773437-11.445312 29.941406-16.917969 47.085937-15.027343 27.78125 3.070312 50.167969 25.460937 53.234375 53.238281 2.683594 24.285156-9.316406 47.660156-30.578125 59.546875-5.917969 3.308594-9.453125 8.945312-9.453125 15.074218v9.644532c0 3.976562-3.222656 7.203125-7.203125 7.203125zm0 0" fill="#ff6977"/><path d="m182 461.902344c-5.261719 0-10.421875-2.140625-14.140625-5.859375s-5.859375-8.878907-5.859375-14.140625c0-5.269532 2.140625-10.429688 5.859375-14.148438 3.71875-3.722656 8.878906-5.851562 14.140625-5.851562s10.421875 2.128906 14.140625 5.851562c3.730469 3.730469 5.859375 8.878906 5.859375 14.148438 0 5.261718-2.128906 10.410156-5.859375 14.140625-3.71875 3.722656-8.878906 5.859375-14.140625 5.859375zm0 0" fill="#ff6977"/><path d="m314 188h-10v-66c0-25.1875-7.613281-49.371094-22.019531-69.933594-14.078125-20.089844-33.582031-35.320312-56.40625-44.050781-5.160157-1.972656-10.9375.609375-12.910157 5.765625-1.976562 5.160156.609376 10.941406 5.765626 12.914062 39.21875 15 65.570312 53.300782 65.570312 95.304688v66h-20v-66c0-45.214844-36.785156-82-82-82s-82 36.785156-82 82v66h-20v-66c0-42.003906 26.351562-80.304688 65.570312-95.304688 5.15625-1.972656 7.742188-7.753906 5.769532-12.914062-1.976563-5.15625-7.757813-7.742188-12.914063-5.765625-22.824219 8.730469-42.328125 23.960937-56.402343 44.050781-14.410157 20.5625-22.023438 44.746094-22.023438 69.933594v66h-10c-27.570312 0-50 22.429688-50 50v224c0 27.570312 22.429688 50 50 50h264c27.570312 0 50-22.429688 50-50v-224c0-27.570312-22.429688-50-50-50zm-194-66c0-34.1875 27.8125-62 62-62s62 27.8125 62 62v66h-124zm194 370h-264c-16.542969 0-30-13.457031-30-30v-54h32.332031c5.523438 0 10-4.476562 10-10s-4.476562-10-10-10h-32.332031v-28h32.332031c5.523438 0 10-4.476562 10-10s-4.476562-10-10-10h-32.332031v-28h32.332031c5.523438 0 10-4.476562 10-10s-4.476562-10-10-10h-32.332031v-54c0-16.542969 13.457031-30 30-30h264c16.542969 0 30 13.457031 30 30v54h-32.332031c-5.523438 0-10 4.476562-10 10s4.476562 10 10 10h32.332031v28h-32.332031c-5.523438 0-10 4.476562-10 10s4.476562 10 10 10h32.332031v28h-32.332031c-5.523438 0-10 4.476562-10 10s4.476562 10 10 10h32.332031v54c0 16.542969-13.457031 30-30 30zm0 0"/><path d="m189.894531 228.429688c-19.976562-2.210938-39.96875 4.175781-54.859375 17.515624-14.496094 12.984376-23.035156 31.589844-23.429687 51.042969-.167969 8.324219 3.058593 16.5 8.851562 22.433594 5.628907 5.761719 13.09375 8.949219 21.023438 8.980469h.109375c16.472656-.003906 29.921875-13.371094 30.003906-29.851563.003906-1.492187.226562-3.613281 1.253906-5.25 2.128906-3.394531 5.351563-5.277343 9.082032-5.308593h.054687c4.601563 0 9.695313 4.335937 10.3125 8.789062.609375 4.394531-1.449219 8.605469-5.246094 10.726562-21.621093 12.089844-35.050781 34.589844-35.050781 58.71875v9.644532c0 9.484375 7.71875 17.203125 17.203125 17.203125h25.59375c9.484375 0 17.203125-7.71875 17.203125-17.203125v-9.644532c0-2.492187 1.578125-4.808593 4.332031-6.347656 24.773438-13.851562 38.765625-41.082031 35.640625-69.371094-3.578125-32.394531-29.6875-58.5-62.078125-62.078124zm16.675781 113.992187c-9.125 5.105469-14.570312 14.003906-14.570312 23.804687v6.847657h-20v-6.847657c0-16.890624 9.507812-32.703124 24.8125-41.261718 11.042969-6.171875 17.042969-18.3125 15.292969-30.929688-1.996094-14.402344-15.480469-26.042968-30.117188-26.042968-.066406 0-.136719 0-.207031 0-10.648438.082031-20.082031 5.433593-25.878906 14.6875-2.792969 4.453124-4.28125 9.910156-4.308594 15.769531-.027344 5.496093-4.511719 9.949219-10.003906 9.949219-.011719 0-.023438 0-.035156 0-2.527344-.007813-4.9375-1.054688-6.789063-2.953126-2.070313-2.121093-3.226563-5.058593-3.164063-8.054687.28125-13.929687 6.394532-27.25 16.777344-36.550781 10.660156-9.546875 24.996094-14.117188 39.320313-12.53125 23.164062 2.558594 41.835937 21.226562 44.394531 44.394531 2.238281 20.28125-7.777344 39.796875-25.523438 49.71875zm0 0"/><path d="m182 411.902344c-7.898438 0-15.632812 3.199218-21.214844 8.78125-5.582031 5.585937-8.785156 13.320312-8.785156 21.21875 0 7.894531 3.203125 15.625 8.789062 21.210937 5.585938 5.585938 13.316407 8.789063 21.210938 8.789063s15.628906-3.203125 21.210938-8.789063c5.585937-5.582031 8.789062-13.3125 8.789062-21.210937 0-7.898438-3.203125-15.636719-8.789062-21.222656-5.578126-5.578126-13.3125-8.777344-21.210938-8.777344zm7.066406 37.070312c-1.832031 1.835938-4.476562 2.929688-7.066406 2.929688s-5.234375-1.09375-7.070312-2.929688c-1.832032-1.835937-2.929688-4.480468-2.929688-7.070312 0-2.597656 1.097656-5.242188 2.929688-7.078125 1.832031-1.828125 4.472656-2.921875 7.070312-2.921875s5.238281 1.09375 7.066406 2.921875c1.863282 1.863281 2.933594 4.445312 2.933594 7.078125 0 2.628906-1.066406 5.207031-2.933594 7.070312zm0 0"/><path d="m182 20c2.628906 0 5.210938-1.070312 7.070312-2.929688 1.859376-1.859374 2.929688-4.441406 2.929688-7.070312s-1.070312-5.210938-2.929688-7.070312c-1.859374-1.859376-4.441406-2.929688-7.070312-2.929688s-5.210938 1.070312-7.070312 2.929688c-1.859376 1.859374-2.929688 4.441406-2.929688 7.070312s1.070312 5.210938 2.929688 7.070312c1.859374 1.859376 4.441406 2.929688 7.070312 2.929688zm0 0"/></svg>