<svg height="512pt" viewBox="0 0 512 512.00125" width="512pt" xmlns="http://www.w3.org/2000/svg"><path d="m166.886719 496.253906 141.046875-244.304687 141.050781 244.304687c2.050781 3.554688 5.84375 5.742188 9.945313 5.742188h28.910156c8.84375 0 14.371094-9.570313 9.949218-17.230469l-169.066406-292.828125c-4.289062-7.425781-12.210937-12-20.789062-12-8.574219 0-16.5 4.574219-20.789063 12l-169.0625 292.828125c-4.421875 7.660156 1.105469 17.230469 9.949219 17.230469h28.90625c4.105469 0 7.898438-2.1875 9.949219-5.742188zm0 0" fill="#ffcb7c"/><path d="m501.96875 203.941406c0 107.164063-86.871094 194.035156-194.035156 194.035156-107.164063 0-194.035156-86.871093-194.035156-194.035156 0-107.164062 86.871093-194.035156 194.035156-194.035156 107.164062 0 194.035156 86.871094 194.035156 194.035156zm0 0" fill="#ff6977"/><path d="m442.265625 203.941406c0 74.191406-60.140625 134.332032-134.332031 134.332032s-134.332032-60.140626-134.332032-134.332032 60.140626-134.332031 134.332032-134.332031 134.332031 60.140625 134.332031 134.332031zm0 0" fill="#fff"/><path d="m382.5625 203.941406c0 41.214844-33.410156 74.628906-74.628906 74.628906-41.214844 0-74.628906-33.414062-74.628906-74.628906s33.414062-74.628906 74.628906-74.628906c41.21875 0 74.628906 33.414062 74.628906 74.628906zm0 0" fill="#ff6977"/><path d="m245.710938 185.660156h-133.179688c-1.46875 0-2.144531-1.820312-1.035156-2.78125l26.203125-22.6875c6.195312-5.363281 8.429687-14.003906 5.609375-21.703125-3.625-9.878906-14.367188-15.175781-24.410156-12.035156l-19.984376 6.703125c-32.992187 11.070312-63.285156 28.957031-88.910156 52.503906v117.90625c21.125 18.203125 48.085938 28.214844 75.972656 28.214844h69.800782c10.089844 0 18.265625-8.175781 18.265625-18.265625 0-9.214844-6.832031-16.816406-15.707031-18.066406v-.199219h15.613281c10.089843 0 18.265625-8.175781 18.265625-18.265625 0-10.085937-8.175782-18.265625-18.265625-18.265625h18.265625c10.089844 0 18.265625-8.175781 18.265625-18.265625 0-10.085937-8.175781-18.265625-18.265625-18.265625h53.496094c10.085937 0 18.265624-8.175781 18.265624-18.265625 0-10.082031-8.179687-18.261719-18.265624-18.261719zm0 0" fill="#ffddcf"/><path d="m437.976562 361.164062c4.894532-4.054687 9.652344-8.359374 14.234376-12.945312 79.554687-79.554688 79.554687-209 0-288.554688-79.554688-79.550781-208.996094-79.550781-288.554688 0-16.417969 16.421876-29.730469 35.199219-39.667969 55.898438-2.679687.074219-5.394531.507812-8.078125 1.347656-.0625.019532-.128906.039063-.191406.0625l-19.984375 6.703125c-34.546875 11.585938-65.667969 29.964844-92.496094 54.621094-4.070312 3.738281-4.335937 10.066406-.597656 14.132813 1.972656 2.144531 4.664063 3.234374 7.367187 3.234374 2.417969 0 4.84375-.875 6.765626-2.636718 24.75-22.746094 53.457031-39.699219 85.324218-50.390625l19.867188-6.664063c1.445312-.433594 2.910156-.511718 4.308594-.296875.71875.289063 1.449218.488281 2.183593.601563 2.449219 1 4.480469 2.984375 5.460938 5.65625 1.382812 3.769531.273437 8.070312-2.765625 10.699218l-26.203125 22.683594c-3.695313 3.199219-4.980469 8.226563-3.273438 12.808594 1.707031 4.578125 5.96875 7.539062 10.855469 7.539062h133.179688c4.554687 0 8.261718 3.707032 8.261718 8.261719 0 4.558594-3.707031 8.265625-8.261718 8.265625h-123.289063c-5.527344 0-10.003906 4.476563-10.003906 10 0 5.523438 4.476562 10.003906 10.003906 10.003906h69.792969c4.558594 0 8.265625 3.707032 8.265625 8.261719 0 4.558594-3.707031 8.265625-8.265625 8.265625h-69.796875c-5.523438 0-10 4.476563-10 10 0 5.523438 4.476562 10.003906 10 10.003906h51.53125c2.953125 0 5.539062 1.558594 7 3.890626.15625.285156.3125.574218.472656.859374.503906 1.066407.792969 2.253907.792969 3.511719 0 4.554688-3.707032 8.261719-8.265625 8.261719h-51.527344c-5.527344 0-10.003906 4.480469-10.003906 10.003906 0 5.523438 4.476562 10 10.003906 10h33.359375c4.554688 0 8.261719 3.707032 8.261719 8.265625 0 4.554688-3.707031 8.261719-8.261719 8.261719h-69.804688c-25.480468 0-50.140624-9.160156-69.445312-25.789062-4.183594-3.605469-10.5-3.136719-14.105469 1.046874-3.605469 4.1875-3.136719 10.5 1.046875 14.109376 22.933594 19.757812 52.234375 30.636718 82.503906 30.636718h69.800782c.5625 0 1.121094-.019531 1.675781-.054687 2.023437 2.207031 4.09375 4.382812 6.203125 6.492187 4.582031 4.582032 9.339844 8.890625 14.238281 12.945313l-68.476562 118.601562c-3.882813 6.726563-3.882813 14.761719 0 21.488281 3.882812 6.726563 10.84375 10.742188 18.609375 10.742188h28.910156c7.652344 0 14.78125-4.117188 18.609375-10.742188l24.980469-43.265624h214.8125l24.980468 43.265624c3.828126 6.625 10.957032 10.742188 18.609376 10.742188h28.910156c7.765625 0 14.726562-4.015625 18.609375-10.742188 3.882812-6.730468 3.882812-14.761718 0-21.488281zm-164-157.238281c0-14.238281-10.585937-26.046875-24.300781-27.984375 10.589844-22.039062 33.09375-36.628906 58.257813-36.628906 35.636718 0 64.628906 28.992188 64.628906 64.628906 0 35.636719-28.992188 64.628906-64.628906 64.628906-25.195313 0-47.691406-14.597656-58.273438-36.660156 13.71875-1.925781 24.316406-13.738281 24.316406-27.984375zm-97.492187 128.808594c4.6875-5.046875 7.5625-11.804687 7.5625-19.21875 0-3.347656-.589844-6.5625-1.664063-9.546875 5.332032-1.667969 9.988282-4.878906 13.445313-9.105469 3.140625 3.859375 6.488281 7.582031 10.042969 11.140625 28.144531 28.140625 65.097656 42.207032 102.0625 42.207032 36.957031 0 73.925781-14.074219 102.058594-42.207032 22.214843-22.214844 36.316406-50.34375 40.789062-81.351562 4.324219-29.972656-1.015625-61.167969-15.035156-87.839844-2.570313-4.890625-8.617188-6.769531-13.503906-4.199219-4.890626 2.570313-6.769532 8.617188-4.203126 13.507813 25.460938 48.4375 16.542969 107.003906-22.191406 145.738281-48.476562 48.476563-127.351562 48.476563-175.828125 0-7.421875-7.421875-13.804687-15.632813-19.078125-24.519531 11.328125-3.683594 19.542969-14.339844 19.542969-26.882813 0-2.875-.4375-5.648437-1.238281-8.261719h8.890625c11.839843 33.523438 43.710937 56.378907 79.796875 56.378907 46.664062 0 84.628906-37.964844 84.628906-84.628907 0-46.667968-37.964844-84.632812-84.628906-84.632812-36.042969 0-67.929688 22.855469-79.785156 56.347656h-41.300782c5.222656-22.570312 16.558594-43.019531 33.171875-59.632812 38.765625-38.765625 97.375-47.664063 145.832031-22.140625 4.890626 2.574219 10.9375.699219 13.511719-4.1875 2.574219-4.890625.699219-10.9375-4.1875-13.511719-26.679687-14.054688-57.894531-19.417969-87.890625-15.101562-31.03125 4.460937-59.183594 18.566406-81.410156 40.796874-20.390625 20.386719-33.921875 45.769532-39.46875 73.777344h-31.292969l9.132813-7.90625c9.28125-8.035156 12.679687-21.179687 8.453125-32.703125-1.972657-5.382812-5.34375-9.851562-9.550781-13.15625 8.832031-17.742187 20.457031-33.886719 34.65625-48.082031 71.753906-71.757812 188.507812-71.757812 260.261718 0 71.757813 71.753906 71.757813 188.507812 0 260.261719-71.753906 71.757812-188.507812 71.757812-260.261718 0-.445313-.441407-.882813-.894531-1.320313-1.339844zm-18.261719 158.519531c-.261718.457032-.753906.742188-1.285156.742188h-28.90625c-.214844 0-.859375 0-1.289062-.742188-.429688-.742187-.105469-1.304687 0-1.484375l67.285156-116.539062c7.820312 5.269531 15.921875 9.9375 24.25 14.003906zm53.851563-53.269531 24.726562-42.824219c22.894531 8.476563 47.015625 12.722656 71.132813 12.722656 24.121094 0 48.238281-4.246093 71.132812-12.722656l24.726563 42.824219zm277.050781 53.269531c-.429688.742188-1.074219.742188-1.285156.742188h-28.910156c-.527344 0-1.019532-.285156-1.285157-.742188l-60.054687-104.019531c8.328125-4.066406 16.433594-8.734375 24.253906-14.003906l67.28125 116.535156c.105469.183594.429688.746094 0 1.488281zm0 0"/><path d="m409.996094 101.882812c-3.90625-3.90625-10.242188-3.90625-14.148438 0-3.90625 3.902344-3.90625 10.238282 0 14.144532l.125.125c1.957032 1.953125 4.515625 2.929687 7.074219 2.929687s5.121094-.976562 7.074219-2.929687c3.902344-3.90625 3.902344-10.238282 0-14.144532zm0 0"/><path d="m307.933594 213.945312c2.632812 0 5.210937-1.070312 7.070312-2.933593 1.863282-1.859375 2.933594-4.441407 2.933594-7.070313s-1.070312-5.210937-2.933594-7.070312c-1.859375-1.859375-4.4375-2.929688-7.070312-2.929688-2.628906 0-5.210938 1.066406-7.070313 2.929688-1.859375 1.859375-2.929687 4.441406-2.929687 7.070312s1.070312 5.210938 2.929687 7.070313c1.859375 1.863281 4.441407 2.933593 7.070313 2.933593zm0 0"/></svg>