<svg height="511pt" viewBox="0 1 511 511.999" width="511pt" xmlns="http://www.w3.org/2000/svg"><path d="m64.5 340.96875v-298.96875c0-17.671875 14.324219-32 32-32h215.996094c17.675781 0 32 14.328125 32 32v333.96875c0 17.675781-14.324219 32-32 32h-215.996094c-17.675781 0-32-14.324219-32-32zm0 0" fill="#b0e7f8"/><path d="m104.5 50h199.996094v303.996094h-199.996094zm0 0" fill="#fff"/><path d="m269.285156 407.96875-.757812 3.691406c-8.308594 40.363282-35.160156 73.570313-72.816406 90.308594h-158.210938v-28.621094c-17.707031-31.792968-27-67.582031-27-103.972656v-102.820312c0-8.371094 7.574219-14.699219 15.8125-13.214844 22.105469 3.992187 38.1875 23.234375 38.1875 45.699218v27.933594l.40625 16.671875c35.601562 0 64.527344 28.726563 64.777344 64.324219zm0 0" fill="#ffcbbe"/><path d="m502.496094 163c0 54.675781-44.324219 99-99 99-54.675782 0-99-44.324219-99-99s44.324218-99 99-99c54.675781 0 99 44.324219 99 99zm0 0" fill="#60a4ff"/><path d="m403.5 262c25.167969 0 48.140625-9.402344 65.609375-24.871094-7.851563-28.882812-34.242187-50.128906-65.609375-50.128906-31.371094 0-57.761719 21.246094-65.613281 50.128906 17.46875 15.46875 40.441406 24.871094 65.613281 24.871094zm0 0" fill="#91def5"/><path d="m434.546875 148.1875v7.761719c0 17.148437-13.902344 31.050781-31.050781 31.050781-17.148438 0-31.046875-13.902344-31.046875-31.050781v-7.761719c0-17.148438 13.898437-31.046875 31.046875-31.046875 17.148437 0 31.050781 13.902344 31.050781 31.046875zm0 0" fill="#ffddcf"/><path d="m243.5 136.257812c0 21.539063-17.460938 39-39 39s-39-17.460937-39-39c0-21.539062 17.460938-39 39-39s39 17.460938 39 39zm0 0" fill="#60a4ff"/><path d="m512.496094 163c0-60.105469-48.894532-109-109-109-17.613282 0-34.257813 4.203125-49 11.652344v-23.652344c0-23.160156-18.839844-42-42-42h-215.996094c-23.160156 0-42 18.839844-42 42v70.070312c0 5.519532 4.476562 10 10 10s10-4.480468 10-10v-70.070312c0-12.132812 9.867188-22 22-22h215.996094c12.132812 0 22 9.867188 22 22v36.683594c-7.582032 6.21875-14.320313 13.4375-20 21.457031v-50.140625c0-5.523438-4.476563-10-10-10h-199.996094c-5.523438 0-10 4.476562-10 10v289.914062c-6.269531-2.742187-12.984375-4.644531-20-5.582031v-142.261719c0-5.523437-4.476562-10-10-10s-10 4.476563-10 10v63.855469c-7.355469-6.21875-16.367188-10.613281-26.410156-12.425781-6.847656-1.238281-13.84375.613281-19.183594 5.074219-5.34375 4.464843-8.40625 11.019531-8.40625 17.980469v102.820312c0 37.125 9.328125 73.902344 27 106.535156v26.058594c0 5.519531 4.476562 10 10 10s10-4.480469 10-10v-28.625c0-1.703125-.4375-3.375-1.265625-4.863281-16.835937-30.230469-25.734375-64.5-25.734375-99.105469v-102.820312c0-1.394532.769531-2.246094 1.230469-2.628907.457031-.386719 1.4375-.992187 2.804687-.746093 17.363282 3.136718 29.964844 18.214843 29.964844 35.859374v41.929688c0 .457031.039062.898438.097656 1.339844-.058594.4375-.097656.882812-.097656 1.335937 0 5.519531 4.476562 10 10 10 30.394531 0 55.125 24.726563 55.125 55.125v18.199219c0 5.523438 4.476562 10 10 10s10-4.476562 10-10v-9h117.015625c-9.429687 33.160156-33.210937 60.78125-64.953125 74.890625-5.046875 2.242187-7.320312 8.152344-5.078125 13.199219 1.65625 3.726562 5.3125 5.941406 9.144531 5.941406 1.355469 0 2.734375-.277344 4.054688-.867188 38.90625-17.289062 67.609375-51.910156 77.511718-93.164062h35.175782c23.160156 0 42-18.839844 42-42v-115.625c14.742187 7.449219 31.386718 11.65625 49 11.65625 27.320312 0 52.324218-10.105469 71.472656-26.773438.550781-.394531 1.050781-.84375 1.503906-1.335937 22.109375-19.960937 36.023438-48.832031 36.023438-80.890625zm-109-89c49.074218 0 89 39.925781 89 89 0 21.171875-7.4375 40.640625-19.828125 55.933594-8.394531-16.0625-22.132813-28.621094-38.574219-35.65625 6.492188-7.261719 10.453125-16.839844 10.453125-27.328125v-7.761719c0-22.632812-18.414063-41.046875-41.050781-41.046875-22.632813 0-41.046875 18.414063-41.046875 41.046875v7.761719c0 10.488281 3.957031 20.066406 10.453125 27.328125-16.445313 7.035156-30.183594 19.59375-38.574219 35.65625-12.390625-15.292969-19.828125-34.761719-19.828125-55.933594-.003906-49.074219 39.921875-89 88.996094-89zm-21.046875 81.949219v-7.761719c0-11.605469 9.441406-21.046875 21.046875-21.046875 11.605468 0 21.050781 9.441406 21.050781 21.046875v7.761719c0 11.605469-9.441406 21.050781-21.050781 21.050781-11.605469 0-21.046875-9.441406-21.046875-21.050781zm-267.949219-95.949219h179.996094v283.996094h-179.996094zm219.996094 315.96875c0 12.132812-9.867188 22-22 22h-43.210938c-.023437 0-.050781 0-.078125 0h-130.371093c-1.820313-12.597656-6.773438-24.195312-14.050782-33.972656h179.714844c5.523438 0 10-4.476563 10-10v-128.136719c4.667969 6.589844 10.050781 12.640625 16.03125 18.042969.449219.484375.945312.925781 1.484375 1.316406.816406.710938 1.644531 1.410156 2.484375 2.097656v128.652344zm15.039062-142.25c8.632813-21.898438 29.984375-36.71875 53.960938-36.71875 23.980468 0 45.332031 14.820312 53.964844 36.71875-14.980469 11.460938-33.6875 18.28125-53.964844 18.28125-20.273438 0-38.980469-6.820312-53.960938-18.28125zm0 0"/><path d="m204.5 185.257812c27.015625 0 48.996094-21.980468 48.996094-49 0-27.019531-21.980469-49-48.996094-49-27.019531 0-49 21.980469-49 49 0 27.019532 21.980469 49 49 49zm0-78c15.988281 0 29 13.007813 29 29 0 15.988282-13.011719 29-29 29-15.992188 0-29-13.011718-29-29 0-15.992187 13.007812-29 29-29zm0 0"/><path d="m262.496094 208h-115.996094c-5.523438 0-10 4.476562-10 10 0 5.519531 4.476562 10 10 10h115.996094c5.523437 0 10-4.480469 10-10 0-5.523438-4.476563-10-10-10zm0 0"/><path d="m262.496094 253.332031h-115.996094c-5.523438 0-10 4.476563-10 10 0 5.519531 4.476562 10 10 10h115.996094c5.523437 0 10-4.480469 10-10 0-5.523437-4.476563-10-10-10zm0 0"/><path d="m262.496094 298.664062h-115.996094c-5.523438 0-10 4.480469-10 10 0 5.523438 4.476562 10 10 10h115.996094c5.523437 0 10-4.476562 10-10 0-5.519531-4.476563-10-10-10zm0 0"/><path d="m204.5 370.996094c-2.632812 0-5.210938 1.070312-7.070312 2.933594-1.863282 1.859374-2.929688 4.4375-2.929688 7.066406 0 2.632812 1.066406 5.210937 2.929688 7.070312 1.859374 1.859375 4.4375 2.929688 7.070312 2.929688 2.628906 0 5.207031-1.070313 7.066406-2.929688 1.863282-1.859375 2.933594-4.4375 2.933594-7.070312 0-2.628906-1.070312-5.207032-2.933594-7.066406-1.859375-1.863282-4.4375-2.933594-7.066406-2.933594zm0 0"/><path d="m64.5 162.066406c2.628906 0 5.210938-1.066406 7.070312-2.929687 1.859376-1.859375 2.929688-4.4375 2.929688-7.070313 0-2.628906-1.070312-5.207031-2.929688-7.066406-1.859374-1.859375-4.441406-2.933594-7.070312-2.933594-2.632812 0-5.210938 1.070313-7.070312 2.933594-1.859376 1.859375-2.929688 4.4375-2.929688 7.066406 0 2.632813 1.070312 5.210938 2.929688 7.070313 1.859374 1.863281 4.4375 2.929687 7.070312 2.929687zm0 0"/></svg>