<svg height="512pt" viewBox="0 0 512 512" width="512pt" xmlns="http://www.w3.org/2000/svg"><path d="m482 10h-132c-11.046875 0-20 8.953125-20 20v88c0 11.046875 8.953125 20 20 20h29v33.667969l33.667969-33.667969h69.332031c11.046875 0 20-8.953125 20-20v-88c0-11.046875-8.953125-20-20-20zm0 0" fill="#ffcb7c"/><path d="m156.476562 123.238281c0-40.449219-32.789062-73.238281-73.238281-73.238281s-73.238281 32.789062-73.238281 73.238281c0 40.445313 32.789062 73.234375 73.238281 73.234375 8.550781 0 16.753907-1.480468 24.382813-4.175781l20.960937 13.367187v-24.941406c16.980469-13.410156 27.894531-34.167968 27.894531-57.484375zm0 0" fill="#91d9b9"/><path d="m305.023438 327.476562 104.554687 39.558594c16.042969 6.070313 26.421875 19.859375 26.421875 35.101563v99.863281h-360v-99.863281c0-15.242188 10.378906-29.03125 26.417969-35.101563l104.558593-39.558594" fill="#91def5"/><path d="m305.023438 312.621094v62.929687l-49.023438-36.757812-49.023438 36.757812v-62.929687zm0 0" fill="#f9f9f9"/><path d="m256 140.160156c-39.382812 0-71.304688 31.925782-71.304688 71.304688v17.167968h34.863282c23.175781 0 45.160156-10.261718 60.046875-28.027343l47.699219 28.027343v-17.167968c0-39.378906-31.921876-71.304688-71.304688-71.304688zm0 0" fill="#8690a6"/><path d="m264.246094 214.621094c-12.992188 9.019531-28.546875 14.011718-44.6875 14.011718h-34.863282v30.285157c0 39.382812 31.921876 71.304687 71.304688 71.304687 39.378906 0 71.304688-31.921875 71.304688-71.304687v-30.285157l-47.703126-28.023437zm0 0" fill="#ffddcf"/><path d="m281.851562 356.988281-12.730468 23.304688h-26.242188l-12.730468-23.304688 25.851562-18.195312zm0 0" fill="#60a4ff"/><path d="m288.195312 502-19.074218-121.707031h-26.242188l-19.074218 121.707031zm0 0" fill="#60a4ff"/><path d="m413.117188 357.683594-98.09375-37.113282v-5.820312c13.796874-14.578125 22.28125-34.226562 22.28125-55.832031v-47.453125c0-44.832032-36.472657-81.304688-81.304688-81.304688s-81.304688 36.472656-81.304688 81.304688v47.453125c0 21.605469 8.488282 41.253906 22.28125 55.832031v5.820312l-98.09375 37.113282c-19.976562 7.558594-32.882812 25.007812-32.882812 44.453125v99.863281c0 5.519531 4.476562 10 10 10h147.792969.023437.019532 64.324218.019532.027343 147.792969c5.523438 0 10-4.480469 10-10v-99.863281c0-19.445313-12.90625-36.894531-32.882812-44.453125zm-196.140626-27.460938c6.992188 3.84375 14.605469 6.695313 22.652344 8.34375l-22.652344 16.988282zm34.457032 60.070313h9.132812l15.9375 101.707031h-41.011718zm11.753906-20h-14.375l-5.277344-9.65625 12.464844-9.347657 12.464844 9.347657zm9.183594-31.726563c8.046875-1.648437 15.660156-4.5 22.652344-8.34375v25.332032zm-77.675782-127.101562c0-33.800782 27.5-61.304688 61.304688-61.304688 33.699219 0 61.136719 27.335938 61.304688 61l-32.636719-19.175781c-4.210938-2.476563-9.589844-1.542969-12.726563 2.199219-13.023437 15.535156-32.113281 24.449218-52.382812 24.449218h-24.863282zm0 27.167968h24.863282c23.335937 0 45.46875-9.136718 61.917968-25.328124l35.828126 21.050781v24.5625c0 33.804687-27.5 61.308593-61.304688 61.308593s-61.304688-27.503906-61.304688-61.308593zm-108.695312 163.503907c0-11.054688 7.832031-21.160157 19.957031-25.746094l91.019531-34.4375v33.597656c0 3.785157 2.136719 7.25 5.523438 8.941407 3.390625 1.691406 7.441406 1.328124 10.472656-.941407l14.394532-10.792969 5.105468 9.34375-17.222656 109.898438h-70.714844v-78.914062c0-5.519532-4.476562-10-10-10-5.519531 0-10 4.480468-10 10v78.914062h-38.535156zm340 89.863281h-38.539062v-78.914062c0-5.519532-4.476563-10-10-10-5.523438 0-10 4.480468-10 10v78.914062h-70.710938l-17.222656-109.898438 5.105468-9.34375 14.390626 10.792969c1.765624 1.320313 3.875 2 6 2 1.527343 0 3.058593-.351562 4.472656-1.058593 3.386718-1.691407 5.527344-5.15625 5.527344-8.941407v-33.597656l91.015624 34.4375c12.125 4.585937 19.960938 14.691406 19.960938 25.746094zm0 0"/><path d="m256.09375 304.570312c6.789062 0 13.582031-2.585937 18.75-7.753906 3.90625-3.90625 3.90625-10.234375 0-14.144531-3.902344-3.902344-10.234375-3.902344-14.140625 0-2.542969 2.542969-6.679687 2.542969-9.222656 0-3.902344-3.902344-10.234375-3.902344-14.140625 0-3.90625 3.90625-3.90625 10.238281 0 14.144531 5.171875 5.171875 11.960937 7.753906 18.753906 7.753906zm0 0"/><path d="m482 0h-26c-5.523438 0-10 4.476562-10 10s4.476562 10 10 10h26c5.511719 0 10 4.484375 10 10v88c0 5.515625-4.488281 10-10 10h-69.332031c-2.652344 0-5.199219 1.054688-7.074219 2.929688l-16.59375 16.59375v-9.523438c0-5.523438-4.476562-10-10-10h-29c-5.515625 0-10-4.484375-10-10v-88c0-5.515625 4.484375-10 10-10h25.5c5.523438 0 10-4.476562 10-10s-4.476562-10-10-10h-25.5c-16.542969 0-30 13.457031-30 30v88c0 16.542969 13.457031 30 30 30h19v23.667969c0 4.042969 2.4375 7.691406 6.171875 9.238281 1.238281.511719 2.535156.761719 3.824219.761719 2.601562 0 5.160156-1.015625 7.074218-2.929688l30.738282-30.738281h65.191406c16.542969 0 30-13.457031 30-30v-88c0-16.542969-13.457031-30-30-30zm0 0"/><path d="m106.195312 203.25 17.011719 10.847656c1.636719 1.042969 3.503907 1.570313 5.375 1.570313 1.652344 0 3.308594-.410157 4.808594-1.230469 3.203125-1.757812 5.191406-5.117188 5.191406-8.769531v-20.28125c17.789063-15.8125 27.894531-38.195313 27.894531-62.148438 0-45.898437-37.34375-83.238281-83.238281-83.238281-45.898437 0-83.238281 37.339844-83.238281 83.238281 0 45.894531 37.339844 83.234375 83.238281 83.234375 7.800781 0 15.5-1.082031 22.957031-3.222656zm-86.195312-80.011719c0-34.871093 28.367188-63.238281 63.238281-63.238281 34.867188 0 63.238281 28.367188 63.238281 63.238281 0 19.453125-8.78125 37.546875-24.089843 49.636719-2.402344 1.898438-3.804688 4.789062-3.804688 7.851562v6.703126l-5.582031-3.5625c-1.625-1.035157-3.496094-1.566407-5.378906-1.566407-1.121094 0-2.246094.1875-3.328125.570313-6.769531 2.390625-13.855469 3.601562-21.054688 3.601562-34.871093.003906-63.238281-28.367187-63.238281-63.234375zm0 0"/><path d="m463.570312 82.238281c1.859376-1.859375 2.929688-4.4375 2.929688-7.070312 0-2.628907-1.070312-5.207031-2.929688-7.066407-1.859374-1.859374-4.441406-2.933593-7.070312-2.933593-2.640625 0-5.210938 1.070312-7.070312 2.933593-1.859376 1.859376-2.929688 4.4375-2.929688 7.066407 0 2.632812 1.070312 5.210937 2.929688 7.070312 1.859374 1.859375 4.4375 2.929688 7.070312 2.929688 2.628906 0 5.210938-1.066407 7.070312-2.929688zm0 0"/><path d="m416 85.167969c2.628906 0 5.210938-1.066407 7.070312-2.929688 1.859376-1.859375 2.929688-4.4375 2.929688-7.070312 0-2.628907-1.070312-5.207031-2.929688-7.066407-1.859374-1.859374-4.441406-2.933593-7.070312-2.933593s-5.210938 1.070312-7.070312 2.933593c-1.859376 1.859376-2.929688 4.4375-2.929688 7.066407 0 2.632812 1.070312 5.210937 2.929688 7.070312 1.859374 1.863281 4.441406 2.929688 7.070312 2.929688zm0 0"/><path d="m375.5 65.167969c-2.628906 0-5.210938 1.070312-7.070312 2.933593-1.859376 1.859376-2.929688 4.429688-2.929688 7.066407 0 2.632812 1.070312 5.210937 2.929688 7.070312 1.859374 1.859375 4.441406 2.929688 7.070312 2.929688s5.210938-1.066407 7.070312-2.929688c1.859376-1.859375 2.929688-4.4375 2.929688-7.070312 0-2.628907-1.070312-5.207031-2.929688-7.066407-1.859374-1.863281-4.441406-2.933593-7.070312-2.933593zm0 0"/><path d="m93.238281 152.207031v-25.664062c0-5.523438-4.476562-10-10-10-5.523437 0-10 4.476562-10 10v25.664062c0 5.523438 4.476563 10 10 10 5.523438 0 10-4.476562 10-10zm0 0"/><path d="m83.238281 104.460938c2.632813 0 5.210938-1.070313 7.070313-2.929688 1.859375-1.863281 2.929687-4.441406 2.929687-7.070312 0-2.632813-1.070312-5.210938-2.929687-7.070313-1.859375-1.871094-4.4375-2.929687-7.070313-2.929687-2.628906 0-5.207031 1.058593-7.070312 2.929687-1.859375 1.859375-2.929688 4.429687-2.929688 7.070313 0 2.628906 1.070313 5.207031 2.929688 7.070312 1.863281 1.859375 4.441406 2.929688 7.070312 2.929688zm0 0"/><path d="m416 20c2.628906 0 5.210938-1.070312 7.070312-2.929688 1.859376-1.859374 2.929688-4.441406 2.929688-7.070312s-1.070312-5.210938-2.929688-7.070312c-1.859374-1.859376-4.441406-2.929688-7.070312-2.929688s-5.210938 1.070312-7.070312 2.929688c-1.859376 1.859374-2.929688 4.441406-2.929688 7.070312s1.070312 5.210938 2.929688 7.070312c1.859374 1.859376 4.441406 2.929688 7.070312 2.929688zm0 0"/></svg>