<svg height="512pt" viewBox="0 0 512 512" width="512pt" xmlns="http://www.w3.org/2000/svg"><path d="m10 10h492v56h-492zm0 0" fill="#ffcb7c"/><path d="m488 66h-464v314c0 11.046875 8.953125 20 20 20h424c11.046875 0 20-8.953125 20-20zm0 0" fill="#fff"/><path d="m285.226562 472.773438c0 16.140624-13.085937 29.226562-29.226562 29.226562s-29.226562-13.085938-29.226562-29.226562c0-16.144532 13.085937-29.230469 29.226562-29.230469s29.226562 13.085937 29.226562 29.230469zm0 0" fill="#fff"/><g fill="#91def5"><path d="m285.226562 472.773438c0 16.140624-13.085937 29.226562-29.226562 29.226562s-29.226562-13.085938-29.226562-29.226562c0-16.144532 13.085937-29.230469 29.226562-29.230469s29.226562 13.085937 29.226562 29.230469zm0 0"/><path d="m285.226562 472.773438c0 16.140624-13.085937 29.226562-29.226562 29.226562s-29.226562-13.085938-29.226562-29.226562c0-16.144532 13.085937-29.230469 29.226562-29.230469s29.226562 13.085937 29.226562 29.230469zm0 0"/><path d="m440 186c0 35.347656-28.652344 64-64 64s-64-28.652344-64-64 28.652344-64 64-64 64 28.652344 64 64zm0 0"/></g><path d="m420.777344 231.707031c11.859375-11.613281 19.222656-27.796875 19.222656-45.707031h-64zm0 0" fill="#f6838d"/><path d="m376 122.144531v63.855469h63.855469c0-35.265625-28.589844-63.855469-63.855469-63.855469zm0 0" fill="#ffcb7c"/><path d="m126 233.042969h54v113.023437h-54zm0 0" fill="#ff6977"/><path d="m180 186.5h54v159.566406h-54zm0 0" fill="#cbe558"/><path d="m72 292.136719h54v53.929687h-54zm0 0" fill="#cff1fb"/><path d="m72 132h130.5c5.523438 0 10-4.476562 10-10s-4.476562-10-10-10h-130.5c-5.523438 0-10 4.476562-10 10s4.476562 10 10 10zm0 0"/><path d="m72 188h52.511719c5.523437 0 10-4.476562 10-10s-4.476563-10-10-10h-52.511719c-5.523438 0-10 4.476562-10 10s4.476562 10 10 10zm0 0"/><path d="m291.5 290.066406c0 5.523438 4.476562 10 10 10h138.5c5.523438 0 10-4.476562 10-10 0-5.519531-4.476562-10-10-10h-138.5c-5.523438 0-10 4.480469-10 10zm0 0"/><path d="m440 336.066406h-138.5c-5.523438 0-10 4.480469-10 10 0 5.523438 4.476562 10 10 10h138.5c5.523438 0 10-4.476562 10-10 0-5.519531-4.476562-10-10-10zm0 0"/><path d="m376 260c40.804688 0 74-33.195312 74-74s-33.195312-74-74-74-74 33.195312-74 74 33.195312 74 74 74zm44.578125-43.566406-20.433594-20.433594h28.914063c-1.40625 7.464844-4.339844 14.390625-8.480469 20.433594zm8.480469-40.433594h-43.058594v-43.058594c21.769531 4.097656 38.960938 21.289063 43.058594 43.058594zm-63.058594-43.058594v53.058594c0 2.761719 1.117188 5.261719 2.929688 7.070312l37.503906 37.507813c-8.671875 5.9375-19.152344 9.421875-30.433594 9.421875-29.773438 0-54-24.226562-54-54 0-26.359375 18.988281-48.351562 44-53.058594zm0 0"/><path d="m234 176.5h-54c-5.523438 0-10 4.480469-10 10v36.542969h-44c-5.523438 0-10 4.476562-10 10v49.09375h-44c-5.523438 0-10 4.476562-10 10v53.929687c0 5.523438 4.476562 10 10 10h162c5.523438 0 10-4.476562 10-10v-159.566406c0-5.519531-4.476562-10-10-10zm-152 125.636719h34v33.929687h-34zm54-10v-49.09375h34v93.023437h-34zm88 43.929687h-34v-139.566406h34zm0 0"/><path d="m502 0h-492c-5.523438 0-10 4.476562-10 10v56c0 5.523438 4.476562 10 10 10h4v304c0 16.542969 13.457031 30 30 30h202v24.839844c-16.800781 4.433594-29.226562 19.757812-29.226562 37.933594 0 21.628906 17.597656 39.226562 39.226562 39.226562s39.226562-17.597656 39.226562-39.226562c0-18.175782-12.425781-33.5-29.226562-37.933594v-24.839844h202c16.542969 0 30-13.457031 30-30v-304h4c5.523438 0 10-4.476562 10-10v-56c0-5.523438-4.476562-10-10-10zm-226.773438 472.773438c0 10.601562-8.625 19.226562-19.226562 19.226562s-19.226562-8.625-19.226562-19.226562c0-10.605469 8.625-19.230469 19.226562-19.230469s19.226562 8.628906 19.226562 19.230469zm202.773438-92.773438c0 5.515625-4.484375 10-10 10h-424c-5.515625 0-10-4.484375-10-10v-304h182c5.523438 0 10-4.476562 10-10s-4.476562-10-10-10h-196v-36h472v36h-196c-5.523438 0-10 4.476562-10 10s4.476562 10 10 10h182zm0 0"/><path d="m256 56c-2.628906 0-5.210938 1.070312-7.070312 2.929688-1.859376 1.859374-2.929688 4.441406-2.929688 7.070312s1.070312 5.210938 2.929688 7.070312c1.859374 1.859376 4.441406 2.929688 7.070312 2.929688s5.210938-1.070312 7.070312-2.929688c1.859376-1.859374 2.929688-4.441406 2.929688-7.070312s-1.070312-5.210938-2.929688-7.070312c-1.859374-1.859376-4.441406-2.929688-7.070312-2.929688zm0 0"/></svg>