<svg height="512pt" viewBox="-50 0 512 512" width="512pt" xmlns="http://www.w3.org/2000/svg"><path d="m330.910156 134.898438c0-68.585938-55.277344-124.257813-123.707031-124.898438-68.21875-.640625-124.839844 54.363281-126.082031 122.574219-.792969 43.671875 20.835937 82.339843 54.144531 105.269531 14.496094 9.980469 23.035156 26.558594 23.035156 44.160156h95.410157v-.003906c0-17.78125 8.855468-34.308594 23.464843-44.453125 32.472657-22.554687 53.734375-60.117187 53.734375-102.648437zm0 0" fill="#ffcb7c"/><path d="m158.300781 282h95.410157v36.003906h-95.410157zm0 0" fill="#91def5"/><path d="m259.390625 319.265625 113.851563 43.074219c17.46875 6.609375 28.769531 21.625 28.769531 38.222656v101.433594h-392.011719v-101.433594c0-16.597656 11.300781-31.613281 28.769531-38.222656l113.851563-43.074219zm0 0" fill="#91def5"/><path d="m246.261719 501.996094-23.851563-108.445313h-32.808594l-23.847656 108.445313zm0 0" fill="#60a4ff"/><path d="m238.332031 364.417969-15.921875 29.132812h-32.808594l-15.921874-29.132812 32.328124-22.753907zm0 0" fill="#60a4ff"/><path d="m253.710938 318.003906v61.234375l-47.703126-47.769531-47.707031 47.769531v-61.234375zm0 0" fill="#f9f9f9"/><path d="m376.785156 352.988281-113.070312-42.78125v-28.203125c0-14.359375 7.164062-27.90625 19.167968-36.242187 36.335938-25.238281 58.027344-66.683594 58.027344-110.863281 0-57.863282-36.796875-109.21875-91.5625-127.789063-5.226562-1.769531-10.910156 1.027344-12.683594 6.261719-1.773437 5.230468 1.027344 10.90625 6.257813 12.679687 46.648437 15.816407 77.988281 59.558594 77.988281 108.847657 0 37.632812-18.484375 72.9375-49.441406 94.4375-14.574219 10.125-24.226562 25.605468-26.960938 42.667968h-76.988281c-2.691406-17.109375-12.207031-32.496094-26.585937-42.398437-31.894532-21.953125-50.515625-58.160157-49.8125-96.847657.875-48.136718 32.242187-90.996093 78.050781-106.652343 5.226563-1.785157 8.015625-7.46875 6.230469-12.695313-1.789063-5.226562-7.472656-8.015625-12.699219-6.230468-53.75 18.371093-90.550781 68.691406-91.578125 125.214843-.828125 45.414063 21.03125 87.914063 58.46875 113.6875 11.710938 8.0625 18.707031 21.492188 18.707031 35.925781v28.203126l-113.070312 42.777343c-21.402344 8.097657-35.230469 26.773438-35.230469 47.574219v101.433594c0 5.523437 4.476562 10 10 10h155.726562c.011719 0 .023438.003906.039063.003906.011719 0 .027344-.003906.042969-.003906h80.398437c.015625 0 .03125.003906.042969.003906s.027344-.003906.039062-.003906h155.726563c5.519531 0 10-4.476563 10-10v-101.433594c-.003906-20.804688-13.832031-39.476562-35.230469-47.574219zm-133.074218-60.984375v16h-75.410157v-16zm-48.378907 36-27.03125 27.066406v-27.066406zm2.308594 75.546875h16.730469l19.449218 88.445313h-55.628906zm18.839844-20h-20.945313l-9.695312-17.738281 20.167968-20.191406 20.164063 20.191406zm27.230469-28.476562-27.03125-27.070313h27.03125zm-223.710938 45.488281c0-12.410156 8.757812-23.742188 22.308594-28.867188l105.992187-40.105468v47.648437c0 4.046875 2.4375 7.691407 6.175781 9.242188 3.742188 1.546875 8.042969.6875 10.898438-2.175781l5.734375-5.738282 7.921875 14.496094-21.316406 96.933594h-73.972656v-66.335938c0-5.519531-4.476563-10-10-10-5.523438 0-10 4.480469-10 10v66.335938h-43.742188zm372.011719 91.433594h-43.742188v-66.335938c0-5.519531-4.476562-10-10-10-5.519531 0-10 4.480469-10 10v66.335938h-73.96875l-21.320312-96.933594 7.925781-14.5 5.730469 5.742188c1.914062 1.914062 4.472656 2.933593 7.078125 2.933593 1.285156 0 2.585937-.25 3.820312-.761719 3.738282-1.546874 6.175782-5.191406 6.175782-9.238281v-47.648437l105.992187 40.101562c13.554687 5.128906 22.308594 16.460938 22.308594 28.871094zm0 0"/><path d="m161.773438 109.386719c0 5.519531 4.476562 10 10 10 5.519531 0 10-4.480469 10-10 0-6.882813 2.941406-13.464844 8.074218-18.0625 5.199219-4.65625 11.933594-6.796875 18.957032-6.019531 11.285156 1.246093 20.035156 9.996093 21.28125 21.28125 1.269531 11.484374-5.433594 22.078124-16.296876 25.757812-10.636718 3.605469-17.78125 13.707031-17.78125 25.136719v8.519531c0 5.519531 4.476563 10 10 10 5.519532 0 10-4.480469 10-10v-8.519531c0-2.808594 1.726563-5.355469 4.203126-6.191407 19.828124-6.722656 32.0625-26.007812 29.753906-46.898437-2.28125-20.660156-18.304688-36.683594-38.964844-38.964844-12.566406-1.386719-25.144531 2.621094-34.496094 11-9.363281 8.386719-14.730468 20.398438-14.730468 32.960938zm0 0"/><path d="m206.007812 194.988281c-2.632812 0-5.210937 1.066407-7.070312 2.929688-1.863281 1.859375-2.929688 4.4375-2.929688 7.070312 0 2.628907 1.066407 5.210938 2.929688 7.066407 1.859375 1.863281 4.4375 2.933593 7.070312 2.933593 2.628907 0 5.207032-1.070312 7.066407-2.933593 1.863281-1.855469 2.933593-4.4375 2.933593-7.066407 0-2.632812-1.070312-5.210937-2.933593-7.070312-1.859375-1.859375-4.4375-2.929688-7.066407-2.929688zm0 0"/><path d="m207.207031 20c2.628907 0 5.210938-1.066406 7.070313-2.929688 1.859375-1.859374 2.929687-4.441406 2.929687-7.070312 0-2.640625-1.070312-5.210938-2.929687-7.070312-1.871094-1.859376-4.441406-2.929688-7.070313-2.929688-2.632812 0-5.210937 1.070312-7.070312 2.929688-1.871094 1.859374-2.929688 4.441406-2.929688 7.070312s1.058594 5.210938 2.929688 7.070312c1.859375 1.863282 4.429687 2.929688 7.070312 2.929688zm0 0"/></svg>