<svg height="512pt" viewBox="0 -16 512 511" width="512pt" xmlns="http://www.w3.org/2000/svg"><path d="m181.128906 94.5v-44h150v44h40v-64c0-11.046875-8.957031-20-20-20h-190c-11.046875 0-20 8.953125-20 20v64zm0 0" fill="#fff"/><path d="m200 10.5h112v40h-112zm0 0" fill="#ea826c"/><path d="m296 468.5h162.222656c24.175782 0 43.777344-19.621094 43.777344-43.828125v-286.34375c0-24.207031-19.601562-43.828125-43.777344-43.828125h-404.445312c-24.175782 0-43.777344 19.621094-43.777344 43.828125v286.34375c0 24.207031 19.601562 43.828125 43.777344 43.828125h162.222656" fill="#c68a65"/><path d="m188 272.5-144.34375-18.480469c-19.242188-2.472656-33.65625-18.867187-33.65625-38.289062v-77.40625c0-24.203125 19.601562-43.824219 43.777344-43.824219h404.445312c24.175782 0 43.777344 19.621094 43.777344 43.824219v77.40625c0 19.421875-14.414062 35.816406-33.65625 38.289062l-144.34375 18.480469" fill="#ea826c"/><path d="m324 295.3125h-136v-38.574219c0-22.878906 18.546875-41.425781 41.425781-41.425781h53.148438c22.878906 0 41.425781 18.546875 41.425781 41.425781zm0 0" fill="#91def5"/><path d="m307.667969 295.3125h-103.335938v42.925781c0 20.476563 16.597657 37.074219 37.070313 37.074219h29.191406c20.476562 0 37.074219-16.597656 37.074219-37.074219zm0 0" fill="#fff"/><path d="m458.222656 84.5h-77.09375v-54c0-16.542969-13.460937-30-30-30h-190c-16.542968 0-30 13.457031-30 30v54h-77.351562c-29.652344 0-53.777344 24.148438-53.777344 53.828125v286.34375c0 29.679687 24.125 53.828125 53.777344 53.828125h162.222656c5.523438 0 10-4.476562 10-10s-4.476562-10-10-10h-162.222656c-18.625 0-33.777344-15.175781-33.777344-33.828125v-169.445313c6.417969 4.691407 14.046875 7.863282 22.386719 8.933594l135.613281 17.363282v13.789062c0 5.523438 4.476562 10 10 10h6.332031v32.925781c0 25.957031 21.117188 47.074219 47.074219 47.074219h29.1875c25.957031 0 47.074219-21.117188 47.074219-47.074219v-32.925781h6.332031c5.523438 0 10-4.476562 10-10v-13.789062l135.617188-17.367188c8.335937-1.066406 15.964843-4.238281 22.382812-8.929688v169.445313c0 18.652344-15.152344 33.828125-33.777344 33.828125h-162.222656c-5.523438 0-10 4.476562-10 10s4.476562 10 10 10h162.222656c29.652344 0 53.777344-24.148438 53.777344-53.828125v-286.34375c0-29.679687-24.125-53.828125-53.777344-53.828125zm-97.09375-54v54h-20v-34c0-5.523438-4.480468-10-10-10h-9.128906v-20h29.128906c5.511719 0 10 4.484375 10 10zm-151.128906 10v-20h92v20zm-58.871094-10c0-5.515625 4.484375-10 10-10h28.871094v20h-8.871094c-5.523437 0-10 4.476562-10 10v34h-20zm40 30h130v24h-130zm6.871094 224.8125v-28.574219c0-17.328125 14.097656-31.425781 31.425781-31.425781h53.148438c17.328125 0 31.425781 14.097656 31.425781 31.425781v28.574219zm99.667969 52.925781c0 14.929688-12.144531 27.074219-27.074219 27.074219h-29.1875c-14.929688 0-27.074219-12.148438-27.074219-27.074219v-32.925781h31.667969v25.851562c0 5.523438 4.476562 10 10 10s10-4.476562 10-10v-25.851562h31.667969zm169.40625-93.917969-133.074219 17.039063v-4.621094c0-28.355469-23.070312-51.425781-51.425781-51.425781h-53.148438c-28.355469 0-51.425781 23.070312-51.425781 51.425781v4.621094l-133.070312-17.039063c-14.210938-1.824218-24.929688-14.019531-24.929688-28.367187v-77.625c0-18.652344 15.152344-33.828125 33.777344-33.828125h404.445312c18.625 0 33.777344 15.175781 33.777344 33.828125v77.625c0 14.347656-10.71875 26.542969-24.925781 28.367187zm0 0"/><path d="m256 458.28125c-2.628906 0-5.210938 1.070312-7.070312 2.929688-1.859376 1.859374-2.929688 4.4375-2.929688 7.070312 0 2.628906 1.070312 5.207031 2.929688 7.070312 1.859374 1.859376 4.441406 2.929688 7.070312 2.929688 2.632812 0 5.210938-1.070312 7.070312-2.929688 1.859376-1.863281 2.929688-4.441406 2.929688-7.070312 0-2.632812-1.070312-5.210938-2.929688-7.070312-1.859374-1.871094-4.4375-2.929688-7.070312-2.929688zm0 0"/></svg>