<svg height="512pt" viewBox="-54 0 512 512" width="512pt" xmlns="http://www.w3.org/2000/svg"><path d="m10 256h384v246h-384zm0 0" fill="#eff3f3"/><path d="m10 10h384v246h-384zm0 0" fill="#fff"/><path d="m194 133c0 37.554688-30.445312 68-68 68s-68-30.445312-68-68 30.445312-68 68-68 68 30.445312 68 68zm0 0" fill="#60a4ff"/><path d="m126 201c17.289062 0 33.066406-6.457031 45.066406-17.082031-5.390625-19.839844-23.519531-34.433594-45.066406-34.433594s-39.675781 14.59375-45.066406 34.433594c12 10.628906 27.777344 17.082031 45.066406 17.082031zm0 0" fill="#91def5"/><path d="m147.328125 122.828125v5.332031c0 11.777344-9.550781 21.324219-21.328125 21.324219s-21.324219-9.546875-21.324219-21.324219v-5.332031c0-11.777344 9.546875-21.328125 21.324219-21.328125s21.328125 9.550781 21.328125 21.328125zm0 0" fill="#ffddcf"/><path d="m194 379c0 37.554688-30.445312 68-68 68s-68-30.445312-68-68 30.445312-68 68-68 68 30.445312 68 68zm0 0" fill="#bdd9ff"/><path d="m126 447c17.289062 0 33.066406-6.457031 45.066406-17.082031-5.390625-19.839844-23.519531-34.433594-45.066406-34.433594s-39.675781 14.59375-45.066406 34.433594c12 10.628906 27.777344 17.082031 45.066406 17.082031zm0 0" fill="#91def5"/><path d="m147.328125 368.828125v5.332031c0 11.777344-9.550781 21.324219-21.328125 21.324219s-21.324219-9.546875-21.324219-21.324219v-5.332031c0-11.777344 9.546875-21.328125 21.324219-21.328125s21.328125 9.550781 21.328125 21.328125zm0 0" fill="#ffddcf"/><path d="m239.667969 143h106.332031c5.523438 0 10-4.476562 10-10s-4.476562-10-10-10h-106.332031c-5.523438 0-10 4.476562-10 10s4.476562 10 10 10zm0 0"/><path d="m239.667969 99h106.332031c5.523438 0 10-4.476562 10-10s-4.476562-10-10-10h-106.332031c-5.523438 0-10 4.476562-10 10s4.476562 10 10 10zm0 0"/><path d="m239.667969 187h53.167969c5.519531 0 10-4.476562 10-10s-4.480469-10-10-10h-53.167969c-5.523438 0-10 4.476562-10 10s4.476562 10 10 10zm0 0"/><path d="m178.304688 190.8125c15.769531-14.28125 25.695312-34.910156 25.695312-57.8125 0-43.011719-34.992188-78-78-78-43.011719 0-78 34.988281-78 78 0 22.90625 9.925781 43.535156 25.699219 57.816406.433593.453125.910156.867188 1.429687 1.234375 13.667969 11.792969 31.445313 18.949219 50.871094 18.949219s37.199219-7.152344 50.867188-18.945312c.523437-.371094 1-.785157 1.4375-1.242188zm-110.304688-57.8125c0-31.980469 26.019531-58 58-58s58 26.019531 58 58c0 12.144531-3.757812 23.421875-10.164062 32.746094-5.433594-8.511719-13.042969-15.394532-21.945313-19.976563 3.425781-5.023437 5.433594-11.085937 5.433594-17.613281v-5.332031c0-17.269531-14.050781-31.324219-31.324219-31.324219s-31.328125 14.054688-31.328125 31.324219v5.332031c0 6.527344 2.007813 12.589844 5.4375 17.613281-8.902344 4.582031-16.511719 11.464844-21.949219 19.976563-6.402344-9.324219-10.160156-20.601563-10.160156-32.746094zm46.675781-4.84375v-5.328125c0-6.246094 5.078125-11.328125 11.324219-11.328125s11.328125 5.082031 11.328125 11.328125v5.328125c0 6.246094-5.082031 11.328125-11.328125 11.328125s-11.324219-5.082031-11.324219-11.328125zm-21.875 52.359375c5.972657-12.636719 18.84375-21.03125 33.199219-21.03125s27.226562 8.394531 33.199219 21.03125c-9.414063 6.597656-20.855469 10.484375-33.199219 10.484375s-23.785156-3.886719-33.199219-10.484375zm0 0"/><path d="m394 0h-384c-5.523438 0-10 4.476562-10 10v492c0 5.523438 4.476562 10 10 10h384c5.523438 0 10-4.476562 10-10v-492c0-5.523438-4.476562-10-10-10zm-374 492v-226h142c5.523438 0 10-4.476562 10-10s-4.476562-10-10-10h-142v-226h364v226h-142c-5.523438 0-10 4.476562-10 10s4.476562 10 10 10h142v226zm0 0"/><path d="m346 369h-106.332031c-5.523438 0-10 4.476562-10 10s4.476562 10 10 10h106.332031c5.523438 0 10-4.476562 10-10s-4.476562-10-10-10zm0 0"/><path d="m346 325h-106.332031c-5.523438 0-10 4.476562-10 10s4.476562 10 10 10h106.332031c5.523438 0 10-4.476562 10-10s-4.476562-10-10-10zm0 0"/><path d="m292.832031 413h-53.167969c-5.519531 0-10 4.476562-10 10s4.480469 10 10 10h53.167969c5.523438 0 10-4.476562 10-10s-4.476562-10-10-10zm0 0"/><path d="m126 301c-43.011719 0-78 34.988281-78 78 0 22.90625 9.925781 43.535156 25.699219 57.816406.433593.453125.910156.867188 1.429687 1.234375 13.667969 11.792969 31.445313 18.949219 50.871094 18.949219s37.199219-7.152344 50.867188-18.945312c.523437-.371094 1-.785157 1.4375-1.242188 15.769531-14.28125 25.695312-34.910156 25.695312-57.8125 0-43.011719-34.988281-78-78-78zm-33.199219 125.515625c5.972657-12.636719 18.84375-21.03125 33.199219-21.03125s27.226562 8.394531 33.199219 21.03125c-9.414063 6.597656-20.855469 10.484375-33.199219 10.484375s-23.785156-3.886719-33.199219-10.484375zm21.875-52.359375v-5.328125c0-6.246094 5.078125-11.328125 11.324219-11.328125s11.328125 5.082031 11.328125 11.328125v5.328125c0 6.246094-5.082031 11.328125-11.328125 11.328125s-11.324219-5.082031-11.324219-11.328125zm59.164063 37.589844c-5.4375-8.511719-13.046875-15.394532-21.949219-19.976563 3.429687-5.023437 5.4375-11.085937 5.4375-17.613281v-5.332031c0-17.269531-14.054687-31.324219-31.328125-31.324219s-31.324219 14.054688-31.324219 31.324219v5.332031c0 6.527344 2.007813 12.589844 5.433594 17.613281-8.902344 4.582031-16.511719 11.464844-21.945313 19.976563-6.40625-9.324219-10.164062-20.601563-10.164062-32.746094 0-31.980469 26.019531-58 58-58s58 26.019531 58 58c0 12.144531-3.757812 23.421875-10.160156 32.746094zm0 0"/><path d="m202 246.128906c-2.628906 0-5.210938 1.0625-7.070312 2.929688-1.859376 1.863281-2.929688 4.433594-2.929688 7.070312 0 2.632813 1.070312 5.210938 2.929688 7.070313 1.859374 1.859375 4.441406 2.929687 7.070312 2.929687s5.210938-1.070312 7.070312-2.929687c1.859376-1.859375 2.929688-4.4375 2.929688-7.070313 0-2.640625-1.070312-5.207031-2.929688-7.070312-1.859374-1.871094-4.441406-2.929688-7.070312-2.929688zm0 0"/></svg>