<svg height="512pt" viewBox="-74 0 512 512" width="512pt" xmlns="http://www.w3.org/2000/svg"><path d="m324 502h-284c-16.570312 0-30-13.429688-30-30v-432c0-16.570312 13.429688-30 30-30h284c16.570312 0 30 13.429688 30 30v432c0 16.570312-13.429688 30-30 30zm0 0" fill="#b0e7f8"/><path d="m50 64h264v374h-264zm0 0" fill="#fff"/><path d="m150 147.546875v19.234375c0 17.671875 14.328125 32 32 32s32-14.328125 32-32v-19.234375zm0 0" fill="#ffddcf"/><path d="m182 105.183594c17.671875 0 32 14.328125 32 32v10.363281h-64v-10.363281c0-17.671875 14.328125-32 32-32zm0 0" fill="#8690a6"/><path d="m198.550781 198.78125h-33.101562c-29.765625 0-53.894531 24.128906-53.894531 53.894531v7.34375h140.890624v-7.34375c0-29.765625-24.128906-53.894531-53.894531-53.894531zm0 0" fill="#91def5"/><path d="m226 391.433594h-88c-13.253906 0-24-10.746094-24-24s10.746094-24 24-24h88c13.253906 0 24 10.746094 24 24s-10.746094 24-24 24zm0 0" fill="#ff6977"/><path d="m324 438v-374c0-5.523438-4.476562-10-10-10h-264c-5.523438 0-10 4.476562-10 10v374c0 5.523438 4.476562 10 10 10h264c5.523438 0 10-4.476562 10-10zm-20-10h-244v-354h244zm0 0"/><path d="m354 363.667969c-5.523438 0-10 4.476562-10 10v98.332031c0 11.027344-8.972656 20-20 20h-284c-11.027344 0-20-8.972656-20-20v-432c0-11.027344 8.972656-20 20-20h283.824219c11.027343 0 20 8.972656 20 20v256c0 5.523438 4.476562 10 10 10 5.523437 0 10-4.476562 10-10v-256c0-22.054688-17.941407-40-40-40h-283.824219c-22.054688 0-40 17.945312-40 40v432c0 22.054688 17.945312 40 40 40h284c22.054688 0 40-17.945312 40-40v-98.332031c0-5.523438-4.476562-10-10-10zm0 0"/><path d="m171.953125 470c0 5.523438 4.476563 10 10 10h.09375c5.523437 0 9.953125-4.476562 9.953125-10s-4.523438-10-10.046875-10-10 4.476562-10 10zm0 0"/><path d="m354 323.671875c-2.628906 0-5.210938 1.058594-7.070312 2.929687-1.859376 1.859376-2.929688 4.429688-2.929688 7.070313 0 2.628906 1.070312 5.207031 2.929688 7.066406 1.859374 1.859375 4.441406 2.933594 7.070312 2.933594s5.210938-1.070313 7.070312-2.933594c1.859376-1.859375 2.929688-4.4375 2.929688-7.066406 0-2.640625-1.070312-5.210937-2.929688-7.070313-1.859374-1.871093-4.441406-2.929687-7.070312-2.929687zm0 0"/><path d="m216.570312 191.386719c4.664063-6.355469 7.429688-13.980469 7.429688-22.089844v-32.113281c0-23.160156-18.839844-42-42-42s-42 18.839844-42 42v10.363281c0 .3125.019531.625.046875.933594-.027344.308593-.046875.621093-.046875.9375v17.363281c0 9.125 2.933594 17.574219 7.898438 24.472656-26.722657 7.644532-46.34375 32.277344-46.34375 61.421875v7.34375c0 5.519531 4.476562 10 10 10h140.890624c5.523438 0 10-4.480469 10-10v-7.34375c0-28.976562-19.394531-53.492187-45.875-61.289062zm-56.570312-24.605469v-9.234375h17.765625c9.269531 0 18.316406-2.484375 26.234375-6.988281v18.738281c0 9.195313-9.410156 19.484375-22 19.484375-12.132812 0-22-9.871094-22-22zm0-29.597656c0-12.128906 9.867188-22 22-22 8.585938 0 16.039062 4.945312 19.660156 12.132812-6.1875 6.460938-14.875 10.230469-23.894531 10.230469h-17.765625zm-38.363281 112.835937c1.375-22.96875 20.503906-41.238281 43.8125-41.238281h33.101562c23.308594 0 42.4375 18.269531 43.8125 41.238281zm0 0"/><path d="m226 333.433594h-88c-18.746094 0-34 15.25-34 34 0 18.746094 15.253906 34 34 34h88c18.746094 0 34-15.253906 34-34 0-18.75-15.253906-34-34-34zm0 48h-88c-7.71875 0-14-6.28125-14-14s6.28125-14 14-14h88c7.71875 0 14 6.28125 14 14s-6.28125 14-14 14zm0 0"/><path d="m191.996094 304.839844v-13.898438c0-5.523437-4.476563-10-10-10-5.519532 0-10 4.476563-10 10v13.898438c0 5.519531 4.480468 10 10 10 5.523437 0 10-4.480469 10-10zm0 0"/><path d="m150.59375 326.367188c2.558594 0 5.117188-.976563 7.070312-2.929688 3.90625-3.90625 3.90625-10.238281 0-14.144531l-8.15625-8.15625c-3.90625-3.902344-10.238281-3.902344-14.144531 0-3.902343 3.90625-3.902343 10.234375 0 14.144531l8.160157 8.15625c1.953124 1.953125 4.511718 2.929688 7.070312 2.929688zm0 0"/><path d="m220.574219 323.4375 8.15625-8.15625c3.90625-3.90625 3.90625-10.238281 0-14.144531-3.90625-3.902344-10.238281-3.902344-14.140625 0l-8.160156 8.160156c-3.902344 3.902344-3.902344 10.234375 0 14.140625 1.953124 1.953125 4.511718 2.929688 7.074218 2.929688 2.558594 0 5.117188-.976563 7.070313-2.929688zm0 0"/></svg>