<svg height="512pt" viewBox="0 -30 512 511" width="512pt" xmlns="http://www.w3.org/2000/svg"><path d="m381.910156 189.898438c7.292969-.542969 14.171875 1.050781 20.082032 4.21875 3.625 1.941406 8.007812-.757813 8.007812-4.867188v-91.414062c0-13.992188-11.34375-25.332032-25.332031-25.332032h-91.414063c-4.109375 0-6.808594-4.378906-4.867187-8.003906 3.167969-5.914062 4.761719-12.792969 4.21875-20.085938-1.339844-18.027343-15.976563-32.578124-34.007813-33.820312-21.449218-1.476562-39.308594 15.488281-39.308594 36.621094 0 6.222656 1.550782 12.078125 4.285157 17.210937 1.949219 3.664063-.679688 8.078125-4.828125 8.078125h-91.457032c-13.988281 0-25.332031 11.34375-25.332031 25.332032v91.414062c0 4.113281 4.382813 6.808594 8.007813 4.867188 5.910156-3.164063 12.789062-4.757813 20.082031-4.21875 18.023437 1.339843 32.578125 15.976562 33.820313 34.007812 1.476562 21.449219-15.484376 39.308594-36.621094 39.308594-6.222656 0-12.078125-1.550782-17.210938-4.285156-3.664062-1.949219-8.078125.679687-8.078125 4.828124v91.414063c0 13.992187 11.34375 25.335937 25.332031 25.335937h91.453126c4.113281 0 6.8125 4.378907 4.871093 8.003907-3.167969 5.914062-4.761719 12.792969-4.21875 20.085937 1.339844 18.023438 15.972657 32.578125 34.007813 33.820313 21.449218 1.476562 39.308594-15.488281 39.308594-36.621094 0-6.222656-1.550782-12.082031-4.285157-17.214844-1.949219-3.660156.679688-8.074219 4.828125-8.074219h91.414063c13.988281 0 25.332031-11.34375 25.332031-25.335937v-91.414063c0-4.148437-4.414062-6.777343-8.078125-4.828124-5.132813 2.734374-10.988281 4.285156-17.210937 4.285156-21.136719 0-38.097657-17.859375-36.621094-39.308594 1.242187-18.035156 15.796875-32.667969 33.820312-34.007812zm0 0" fill="#ffcb7c"/><path d="m224.128906 189.574219v19.238281c0 17.671875 14.324219 32 32 32 17.671875 0 32-14.328125 32-32v-34.808594zm0 0" fill="#ffddcf"/><path d="m256.128906 147.214844c17.671875 0 32 14.324218 32 32v10.363281h-64v-10.363281c0-17.675782 14.324219-32 32-32zm0 0" fill="#8690a6"/><path d="m272.675781 240.8125h-33.097656c-29.765625 0-53.894531 24.128906-53.894531 53.894531v11.34375h140.886718v-11.34375c0-29.765625-24.128906-53.894531-53.894531-53.894531zm0 0" fill="#91def5"/><path d="m384.667969 62.503906h-84.527344c2.078125-6 2.917969-12.394531 2.4375-18.832031-1.707031-22.964844-20.316406-41.476563-43.292969-43.054687-13.109375-.910157-25.589844 3.519531-35.152344 12.449218-9.433593 8.804688-14.84375 21.25-14.84375 34.148438 0 5.207031.882813 10.390625 2.574219 15.289062h-84.570312c-19.484375 0-35.332031 15.851563-35.332031 35.332032v91.414062c0 5.503906 2.820312 10.476562 7.546874 13.308594 4.691407 2.8125 10.367188 2.949218 15.179688.375 4.449219-2.386719 9.503906-3.441406 14.621094-3.0625 13.113281.972656 23.683594 11.601562 24.585937 24.71875.515625 7.515625-2.007812 14.667968-7.113281 20.136718-5.109375 5.472657-12.046875 8.488282-19.53125 8.488282-4.425781 0-8.636719-1.046875-12.511719-3.113282-4.855469-2.585937-10.5625-2.4375-15.273437.386719-4.699219 2.824219-7.503906 7.78125-7.503906 13.269531v91.414063c0 19.484375 15.851562 35.332031 35.332031 35.332031h84.566406c-2.078125 6-2.914063 12.398438-2.4375 18.832032 1.707031 22.964843 20.320313 41.476562 43.296875 43.058593 1.117188.074219 2.226562.113281 3.335938.113281 11.875 0 23.066406-4.394531 31.816406-12.5625 9.433594-8.804687 14.839844-21.253906 14.839844-34.148437 0-5.210937-.878907-10.394531-2.570313-15.289063h84.527344c19.480469 0 35.332031-15.851562 35.332031-35.335937v-91.414063c0-5.484374-2.804688-10.445312-7.503906-13.265624-4.710938-2.828126-10.417969-2.972657-15.273438-.386719-3.875 2.0625-8.085937 3.109375-12.511718 3.109375-7.484376 0-14.421876-3.015625-19.53125-8.488282-5.101563-5.46875-7.628907-12.617187-7.113282-20.136718.90625-13.117188 11.472656-23.746094 24.585938-24.71875 5.121094-.382813 10.171875.679687 14.621094 3.0625 4.8125 2.578125 10.484374 2.4375 15.179687-.375 4.726563-2.828125 7.550781-7.804688 7.550781-13.308594v-91.414062c-.003906-19.480469-15.855468-35.332032-35.335937-35.332032zm15.332031 119.859375c-5.996094-2.078125-12.394531-2.914062-18.832031-2.4375-22.964844 1.703125-41.472657 20.316407-43.054688 43.289063-.902343 13.105468 3.519531 25.59375 12.445313 35.15625 8.804687 9.433594 21.253906 14.84375 34.152344 14.84375 5.207031 0 10.390624-.878906 15.289062-2.574219v84.53125c0 8.453125-6.878906 15.332031-15.335938 15.332031h-91.414062c-5.484375 0-10.445312 2.808594-13.265625 7.507813-2.828125 4.707031-2.972656 10.417969-.386719 15.269531 2.0625 3.878906 3.113282 8.085938 3.113282 12.511719 0 7.484375-3.015626 14.417969-8.488282 19.53125-5.46875 5.101562-12.628906 7.625-20.136718 7.113281-13.117188-.902344-23.746094-11.472656-24.722657-24.582031-.378906-5.117188.679688-10.175781 3.0625-14.625 2.578125-4.8125 2.4375-10.484375-.371093-15.179688-2.832032-4.726562-7.808594-7.546875-13.3125-7.546875h-91.453126c-8.453124 0-15.332031-6.878906-15.332031-15.335937v-84.527344c4.898438 1.691406 10.082031 2.574219 15.289063 2.574219 12.898437 0 25.34375-5.410156 34.148437-14.84375 8.929688-9.5625 13.351563-22.050782 12.449219-35.15625-1.582031-22.972656-20.09375-41.585938-43.058594-43.292969-6.4375-.476563-12.832031.359375-18.832031 2.441406v-84.527343c0-8.453126 6.882813-15.332032 15.335937-15.332032h91.457032c5.484375 0 10.445312-2.808594 13.265625-7.507812 2.828125-4.707032 2.972656-10.417969.386719-15.273438-2.0625-3.875-3.113282-8.082031-3.113282-12.507812 0-7.484375 3.015625-14.421875 8.488282-19.53125 5.46875-5.101563 12.628906-7.628906 20.136718-7.113282 13.117188.902344 23.746094 11.46875 24.722656 24.582032.378907 5.117187-.679687 10.175781-3.0625 14.625-2.578124 4.808594-2.4375 10.484375.371094 15.179687 2.832032 4.726563 7.808594 7.546875 13.3125 7.546875h91.410156c8.457032 0 15.332032 6.878906 15.332032 15.332032v84.527343zm0 0"/><path d="m290.695312 233.414062c4.667969-6.351562 7.433594-13.980468 7.433594-22.085937v-32.113281c0-23.160156-18.84375-42-42-42-23.160156 0-42 18.839844-42 42v10.359375c0 .316406.015625.628906.046875.9375-.03125.308593-.046875.621093-.046875.9375v17.363281c0 9.125 2.933594 17.574219 7.894532 24.46875-26.71875 7.648438-46.339844 32.28125-46.339844 61.425781v11.34375c0 5.519531 4.476562 10 10 10h30.445312c5.519532 0 10-4.480469 10-10 0-5.523437-4.480468-10-10-10h-20.445312v-1.34375c0-24.203125 19.691406-43.894531 43.894531-43.894531h33.101563c24.203124 0 43.894531 19.6875 43.894531 43.894531v1.34375h-20.445313c-5.523437 0-10 4.476563-10 10 0 5.519531 4.476563 10 10 10h30.445313c5.519531 0 10-4.480469 10-10v-11.34375c-.003907-28.976562-19.394531-53.492187-45.878907-61.292969zm-56.566406-24.601562v-9.238281h17.761719c9.269531 0 18.320313-2.480469 26.238281-6.984375v18.738281c0 9.195313-9.410156 19.484375-22 19.484375-12.132812 0-22-9.871094-22-22zm0-29.597656c0-12.132813 9.867188-22 22-22 8.585938 0 16.035156 4.941406 19.660156 12.132812-6.1875 6.460938-14.875 10.230469-23.898437 10.230469h-17.761719zm0 0"/><path d="m502 216.503906h-29.519531c-5.519531 0-10 4.480469-10 10 0 5.523438 4.480469 10 10 10h29.519531c5.523438 0 10-4.476562 10-10 0-5.519531-4.476562-10-10-10zm0 0"/><path d="m448 169.703125c2.558594 0 5.117188-.976563 7.070312-2.925781l17.324219-17.324219c3.902344-3.90625 3.902344-10.238281 0-14.144531-3.90625-3.902344-10.238281-3.902344-14.144531 0l-17.320312 17.324218c-3.90625 3.90625-3.90625 10.238282 0 14.144532 1.953124 1.949218 4.511718 2.925781 7.070312 2.925781zm0 0"/><path d="m455.070312 286.234375c-3.90625-3.90625-10.234374-3.90625-14.140624 0-3.90625 3.902344-3.90625 10.234375 0 14.140625l17.320312 17.324219c1.953125 1.953125 4.511719 2.929687 7.070312 2.929687 2.558594 0 5.117188-.976562 7.070313-2.929687 3.90625-3.90625 3.90625-10.238281 0-14.144531zm0 0"/><path d="m49.519531 226.503906c0-5.519531-4.480469-10-10-10h-29.519531c-5.523438 0-10 4.480469-10 10 0 5.523438 4.476562 10 10 10h29.519531c5.519531 0 10-4.476562 10-10zm0 0"/><path d="m53.75 135.308594c-3.90625-3.902344-10.234375-3.902344-14.144531 0-3.90625 3.90625-3.90625 10.238281 0 14.144531l17.324219 17.324219c1.953124 1.949218 4.511718 2.925781 7.070312 2.925781s5.117188-.976563 7.070312-2.925781c3.90625-3.90625 3.90625-10.238282 0-14.144532zm0 0"/><path d="m56.929688 286.234375-17.324219 17.320313c-3.902344 3.90625-3.902344 10.238281 0 14.144531 1.953125 1.953125 4.511719 2.929687 7.074219 2.929687 2.558593 0 5.117187-.976562 7.070312-2.929687l17.320312-17.324219c3.90625-3.90625 3.90625-10.238281 0-14.140625-3.90625-3.90625-10.238281-3.90625-14.140624 0zm0 0"/><path d="m256.128906 296.042969c-2.640625 0-5.207031 1.070312-7.070312 2.929687-1.867188 1.871094-2.929688 4.441406-2.929688 7.082032 0 2.628906 1.0625 5.199218 2.929688 7.058593 1.863281 1.871094 4.433594 2.941407 7.070312 2.941407 2.632813 0 5.199219-1.070313 7.070313-2.941407 1.859375-1.859375 2.929687-4.429687 2.929687-7.058593 0-2.640626-1.070312-5.21875-2.929687-7.082032-1.871094-1.859375-4.4375-2.929687-7.070313-2.929687zm0 0"/></svg>