<svg height="512pt" viewBox="0 0 512 512.00054" width="512pt" xmlns="http://www.w3.org/2000/svg"><path d="m502 222.871094c0 106.039062-85.960938 192-192 192s-192-85.960938-192-192c0-106.039063 85.960938-192 192-192s192 85.960937 192 192zm0 0" fill="#cff1fb"/><path d="m500.023438 250.414062c1.292968-8.996093 1.976562-18.191406 1.976562-27.542968 0-55.316406-23.402344-105.160156-60.835938-140.195313h-28.917968c-23.160156 0-41.933594 18.773438-41.933594 41.933594s-18.773438 41.933594-41.933594 41.933594h-7.226562c-23.15625 0-41.933594 18.773437-41.933594 41.933593 0 23.160157 18.777344 41.933594 41.933594 41.933594h178.871094zm0 0" fill="#cbe558"/><path d="m218.847656 258.871094h-7.222656c-23.160156 0-41.9375-18.773438-41.9375-41.933594s-18.773438-41.933594-41.933594-41.933594h-3.738281c-3.925781 15.300782-6.015625 31.339844-6.015625 47.867188 0 45.351562 15.730469 87.019531 42.023438 119.871094h58.824218c23.160156 0 41.933594-18.777344 41.933594-41.9375 0-23.15625-18.773438-41.933594-41.933594-41.933594zm0 0" fill="#cbe558"/><path d="m366 484.207031-298.5-45.375v-77.332031l298.5-45.332031zm0 0" fill="#8690a6"/><g fill="#91def5"><path d="m403.167969 502h-30.335938c-3.773437 0-6.832031-3.058594-6.832031-6.832031v-189.964844c0-3.769531 3.058594-6.828125 6.832031-6.828125h30.335938c3.773437 0 6.832031 3.054688 6.832031 6.828125v189.964844c0 3.773437-3.058594 6.832031-6.832031 6.832031zm0 0"/><path d="m232.921875 471.671875h-39.492187c-.140626 0-.253907-.113281-.253907-.253906v-142.460938c0-.140625.113281-.253906.253907-.253906h39.492187c.140625 0 .253906.113281.253906.253906v142.460938c0 .140625-.113281.253906-.253906.253906zm0 0"/><path d="m67.5 427.035156h-47.320312c-5.621094 0-10.179688-4.558594-10.179688-10.179687v-33.335938c0-5.621093 4.558594-10.179687 10.179688-10.179687h47.320312zm0 0"/></g><path d="m410 101.617188 92-45.808594-92-45.808594zm0 0" fill="#ff6977"/><path d="m512 222.871094c0-50.507813-18.304688-97.953125-51.804688-135.074219l46.261719-23.035156c3.394531-1.691407 5.542969-5.160157 5.542969-8.953125 0-3.792969-2.144531-7.261719-5.542969-8.953125l-92-45.808594c-3.097656-1.542969-6.777343-1.371094-9.722656.449219-2.945313 1.824218-4.734375 5.042968-4.734375 8.503906v31.984375c-15.195312-7.582031-31.25-13.1875-47.925781-16.722656-5.40625-1.140625-10.714844 2.308593-11.855469 7.710937-1.144531 5.402344 2.304688 10.710938 7.707031 11.855469 18.320313 3.882813 35.808594 10.550781 52.074219 19.828125v9.460938c-23.082031 5.503906-39.6875 26.039062-39.6875 50.492187 0 17.609375-14.328125 31.933594-31.933594 31.933594h-7.226562c-28.636719 0-51.933594 23.300781-51.933594 51.9375s23.296875 51.933593 51.933594 51.933593h166.988281c-8.878906 42.765626-32.808594 80.785157-68.140625 107.492188v-62.699219c0-9.28125-7.550781-16.832031-16.832031-16.832031h-30.339844c-9.277344 0-16.828125 7.550781-16.828125 16.832031v2.097657l-88.101562 10.613281c1.890624-5.425781 2.882812-11.191407 2.882812-17.109375 0-28.640625-23.300781-51.9375-51.9375-51.9375h-7.222656c-17.609375 0-31.933594-14.324219-31.933594-31.933594 0-25.394531-18.324219-46.574219-42.441406-51.050781 19.984375-60.046875 70.640625-107.460938 134.835937-121.0625 5.402344-1.144531 8.851563-6.453125 7.710938-11.855469-1.148438-5.402344-6.449219-8.847656-11.855469-7.710938-44.601562 9.449219-85.171875 34.179688-114.234375 69.636719-18.4375 22.492188-31.695313 48.703125-39.035156 76.582031-.265625.695313-.449219 1.429688-.550781 2.1875-4.027344 16.003907-6.117188 32.535157-6.117188 49.207032 0 41.859375 13.101562 82.765625 37.140625 116.722656l-79.144531 12.019531c-4.886719.742188-8.496094 4.945313-8.496094 9.886719v1.839844h-37.320312c-11.125 0-20.179688 9.050781-20.179688 20.179687v33.335938c0 11.125 9.054688 20.179687 20.179688 20.179687h37.320312v1.796875c0 4.945313 3.609375 9.144531 8.496094 9.886719l117.179687 17.8125v4.886719c0 5.65625 4.597657 10.253906 10.253907 10.253906h39.492187c2.617187 0 5-.992187 6.8125-2.613281l116.265625 14.015625v2.097656c0 9.277344 7.550781 16.828125 16.832031 16.828125h30.339844c9.277344 0 16.828125-7.550781 16.828125-16.828125v-102.863281c26.882812-17.492188 49.414062-41.28125 65.367188-69.117188 12.488281-21.785156 20.730468-45.78125 24.410156-70.597656.105468-.457031.171875-.921875.207031-1.398438 1.324219-9.355468 2.015625-18.816406 2.015625-28.324218zm-384 0c0-12.816406 1.375-25.394532 3.972656-37.578125 15.621094 2.070312 27.71875 15.464843 27.71875 31.644531 0 28.636719 23.296875 51.933594 51.933594 51.933594h7.222656c17.609375 0 31.9375 14.328125 31.9375 31.9375 0 7.375-2.492187 14.367187-7.0625 20.027344l-3.988281.480468c-1.8125-1.621094-4.195313-2.613281-6.8125-2.613281h-39.492187c-5.652344 0-10.253907 4.597656-10.253907 10.253906v4.863281l-15.59375 2.367188c-25.542969-32.078125-39.582031-72.1875-39.582031-113.316406zm-107.820312 194.164062c-.097657 0-.179688-.082031-.179688-.179687v-33.335938c0-.101562.082031-.179687.179688-.179687h37.320312v33.695312zm57.320312 13.203125v-60.140625l105.675781-16.046875v92.25zm145.675781 31.433594h-20v-122.96875h20zm20-2.339844v-118.289062l112.824219-13.597657v145.484376zm156.824219 32.667969h-24v-183.625h24zm39.015625-416c-.101563.050781-.207031.097656-.308594.152344l-18.707031 9.3125v-59.3125l59.5625 29.65625zm-117.863281 164.414062c-17.605469 0-31.933594-14.328124-31.933594-31.933593 0-17.609375 14.324219-31.9375 31.933594-31.9375h7.226562c28.636719 0 51.933594-23.296875 51.933594-51.933594 0-13.316406 8.003906-24.738281 19.6875-29.527344v71.460938c0 5.523437 4.476562 10 10 10s10-4.476563 10-10v-58.734375l21.527344-10.71875c32.597656 34.015625 50.472656 78.402344 50.472656 125.78125 0 5.902344-.28125 11.753906-.828125 17.542968zm0 0"/><path d="m302.886719 118h-46.917969c-5.519531 0-10 4.480469-10 10 0 5.523438 4.480469 10 10 10h46.917969c5.523437 0 10-4.476562 10-10 0-5.519531-4.476563-10-10-10zm0 0"/><path d="m199.332031 118c-5.519531 0-10 4.480469-10 10 0 5.523438 4.480469 10 10 10h15c5.523438 0 10-4.476562 10-10 0-5.519531-4.476562-10-10-10zm0 0"/><path d="m310 40.871094c2.628906 0 5.210938-1.070313 7.070312-2.929688 1.859376-1.859375 2.929688-4.441406 2.929688-7.070312s-1.070312-5.210938-2.929688-7.070313c-1.859374-1.859375-4.441406-2.929687-7.070312-2.929687s-5.210938 1.070312-7.070312 2.929687c-1.859376 1.859375-2.929688 4.441407-2.929688 7.070313s1.070312 5.210937 2.929688 7.070312c1.859374 1.859375 4.441406 2.929688 7.070312 2.929688zm0 0"/></svg>